<?xml version="1.0" encoding="UTF-8" standalone="no"?>
<!-- Created with Inkscape (http://www.inkscape.org/) -->

<svg
   xmlns:dc="http://purl.org/dc/elements/1.1/"
   xmlns:cc="http://creativecommons.org/ns#"
   xmlns:rdf="http://www.w3.org/1999/02/22-rdf-syntax-ns#"
   xmlns:svg="http://www.w3.org/2000/svg"
   xmlns="http://www.w3.org/2000/svg"
   xmlns:xlink="http://www.w3.org/1999/xlink"
   xmlns:sodipodi="http://sodipodi.sourceforge.net/DTD/sodipodi-0.dtd"
   xmlns:inkscape="http://www.inkscape.org/namespaces/inkscape"
   width="64"
   height="64"
   id="svg3030"
   version="1.1"
   inkscape:version="0.48.2 r9819"
   sodipodi:docname="icon.svg"
   inkscape:export-filename="C:\xampp\htdocs\V2Forums\plugins\JumpToTop\design\jump.png"
   inkscape:export-xdpi="90"
   inkscape:export-ydpi="90">
  <defs
     id="defs3032">
    <inkscape:path-effect
       effect="skeletal"
       id="path-effect3033"
       is_visible="true"
       pattern="M 0,5 C 0,2.24 2.24,0 5,0 7.76,0 10,2.24 10,5 10,7.76 7.76,10 5,10 2.24,10 0,7.76 0,5 z"
       copytype="single_stretched"
       prop_scale="1"
       scale_y_rel="false"
       spacing="0"
       normal_offset="0"
       tang_offset="0"
       prop_units="false"
       vertical_pattern="false"
       fuse_tolerance="0" />
    <filter
       inkscape:collect="always"
       id="filter3755">
      <feGaussianBlur
         inkscape:collect="always"
         stdDeviation="0.64"
         id="feGaussianBlur3757" />
    </filter>
  </defs>
  <sodipodi:namedview
     id="base"
     pagecolor="#ffffff"
     bordercolor="#666666"
     borderopacity="1.0"
     inkscape:pageopacity="0.0"
     inkscape:pageshadow="2"
     inkscape:zoom="7.8580482"
     inkscape:cx="63.765178"
     inkscape:cy="32.953271"
     inkscape:document-units="px"
     inkscape:current-layer="g3759"
     showgrid="false"
     fit-margin-top="0"
     fit-margin-left="-0.2"
     fit-margin-right="0"
     fit-margin-bottom="0"
     inkscape:showpageshadow="false"
     inkscape:window-width="1598"
     inkscape:window-height="1042"
     inkscape:window-x="1920"
     inkscape:window-y="0"
     inkscape:window-maximized="0" />
  <metadata
     id="metadata3035">
    <rdf:RDF>
      <cc:Work
         rdf:about="">
        <dc:format>image/svg+xml</dc:format>
        <dc:type
           rdf:resource="http://purl.org/dc/dcmitype/StillImage" />
        <dc:title />
      </cc:Work>
    </rdf:RDF>
  </metadata>
  <g
     inkscape:label="Layer 1"
     inkscape:groupmode="layer"
     id="layer1"
     transform="translate(-130.85715,-288.93359)">
    <g
       id="g3759"
       transform="matrix(0.95419847,0,0,0.95419847,7.4591092,13.745048)">
      <g
         id="g3052">
        <path
           inkscape:tile-y0="5.4251871"
           inkscape:tile-x0="13.989363"
           inkscape:tile-h="45.30748"
           inkscape:tile-w="45.30748"
           inkscape:tile-cy="28.078927"
           inkscape:tile-cx="36.643103"
           transform="matrix(1.048,0,0,1.048,129.32115,288.39759)"
           d="m 59.296841,28.07893 a 22.65374,22.65374 0 1 1 -45.30748,0 22.65374,22.65374 0 1 1 45.30748,0 z"
           sodipodi:ry="22.65374"
           sodipodi:rx="22.65374"
           sodipodi:cy="28.07893"
           sodipodi:cx="36.643101"
           id="path2989"
           style="fill:none;fill-opacity:1;stroke:#000000"
           sodipodi:type="arc" />
        <use
           height="64"
           width="64"
           id="use3015"
           transform="matrix(0.8,0,0,1,33.544624,0)"
           xlink:href="#path2989"
           inkscape:tiled-clone-of="#path2989"
           y="0"
           x="0" />
        <use
           height="64"
           width="64"
           id="use3019"
           transform="matrix(0.6,0,0,1,67.089248,0)"
           xlink:href="#path2989"
           inkscape:tiled-clone-of="#path2989"
           y="0"
           x="0" />
        <use
           height="64"
           width="64"
           id="use3023"
           transform="matrix(0.4,0,0,1,100.63387,0)"
           xlink:href="#path2989"
           inkscape:tiled-clone-of="#path2989"
           y="0"
           x="0" />
        <use
           height="64"
           width="64"
           id="use3027"
           transform="matrix(0.2,0,0,1,134.1785,0)"
           xlink:href="#path2989"
           inkscape:tiled-clone-of="#path2989"
           y="0"
           x="0" />
        <path
           inkscape:connector-curvature="0"
           id="path3035"
           d="m 167.46112,293.80134 0,47.4875 c 0.0883,9.7e-4 0.17347,0 0.262,0 0.0885,0 0.1737,9.7e-4 0.262,0 l 0,-47.4875 c -0.0883,-9.7e-4 -0.17347,0 -0.262,0 -0.0885,0 -0.1737,-9.7e-4 -0.262,0 z"
           style="font-size:medium;font-style:normal;font-variant:normal;font-weight:normal;font-stretch:normal;text-indent:0;text-align:start;text-decoration:none;line-height:normal;letter-spacing:normal;word-spacing:normal;text-transform:none;direction:ltr;block-progression:tb;writing-mode:lr-tb;text-anchor:start;baseline-shift:baseline;color:#000000;fill:#000000;fill-opacity:1;stroke:none;stroke-width:0.52399999;marker:none;visibility:visible;display:inline;overflow:visible;enable-background:accumulate;font-family:Sans;-inkscape-font-specification:Sans" />
      </g>
      <g
         id="g3060"
         transform="matrix(0,1,-1,0,485.54743,150.10119)">
        <path
           sodipodi:type="arc"
           style="fill:none;stroke:#000000"
           id="path3062"
           sodipodi:cx="36.643101"
           sodipodi:cy="28.07893"
           sodipodi:rx="22.65374"
           sodipodi:ry="22.65374"
           d="m 59.296841,28.07893 c 0,12.511315 -10.142425,22.65374 -22.65374,22.65374 -12.511315,0 -22.65374,-10.142425 -22.65374,-22.65374 0,-12.511315 10.142425,-22.65374 22.65374,-22.65374 12.511315,0 22.65374,10.142425 22.65374,22.65374 z"
           transform="matrix(1.048,0,0,1.048,129.32115,288.39759)"
           inkscape:tile-cx="36.643103"
           inkscape:tile-cy="28.078927"
           inkscape:tile-w="45.30748"
           inkscape:tile-h="45.30748"
           inkscape:tile-x0="13.989363"
           inkscape:tile-y0="5.4251871" />
        <use
           x="0"
           y="0"
           inkscape:tiled-clone-of="#path2989"
           xlink:href="#path2989"
           transform="matrix(0.8,0,0,1,33.544624,0)"
           id="use3064"
           width="64"
           height="64" />
        <use
           x="0"
           y="0"
           inkscape:tiled-clone-of="#path2989"
           xlink:href="#path2989"
           transform="matrix(0.6,0,0,1,67.089248,0)"
           id="use3066"
           width="64"
           height="64" />
        <use
           x="0"
           y="0"
           inkscape:tiled-clone-of="#path2989"
           xlink:href="#path2989"
           transform="matrix(0.4,0,0,1,100.63387,0)"
           id="use3068"
           width="64"
           height="64" />
        <use
           x="0"
           y="0"
           inkscape:tiled-clone-of="#path2989"
           xlink:href="#path2989"
           transform="matrix(0.2,0,0,1,134.1785,0)"
           id="use3070"
           width="64"
           height="64" />
        <path
           style="font-size:medium;font-style:normal;font-variant:normal;font-weight:normal;font-stretch:normal;text-indent:0;text-align:start;text-decoration:none;line-height:normal;letter-spacing:normal;word-spacing:normal;text-transform:none;direction:ltr;block-progression:tb;writing-mode:lr-tb;text-anchor:start;baseline-shift:baseline;color:#000000;fill:#000000;fill-opacity:1;stroke:none;stroke-width:0.52399999;marker:none;visibility:visible;display:inline;overflow:visible;enable-background:accumulate;font-family:Sans;-inkscape-font-specification:Sans"
           d="m 167.46112,293.80134 0,47.4875 c 0.0883,9.7e-4 0.17347,0 0.262,0 0.0885,0 0.1737,9.7e-4 0.262,0 l 0,-47.4875 c -0.0883,-9.7e-4 -0.17347,0 -0.262,0 -0.0885,0 -0.1737,-9.7e-4 -0.262,0 z"
           id="path3072"
           inkscape:connector-curvature="0" />
      </g>
    </g>
  </g>
</svg>
