<?xml version="1.0" encoding="UTF-8" standalone="no"?>
<!-- Created with Inkscape (http://www.inkscape.org/) -->

<svg
   xmlns:dc="http://purl.org/dc/elements/1.1/"
   xmlns:cc="http://creativecommons.org/ns#"
   xmlns:rdf="http://www.w3.org/1999/02/22-rdf-syntax-ns#"
   xmlns:svg="http://www.w3.org/2000/svg"
   xmlns="http://www.w3.org/2000/svg"
   xmlns:sodipodi="http://sodipodi.sourceforge.net/DTD/sodipodi-0.dtd"
   xmlns:inkscape="http://www.inkscape.org/namespaces/inkscape"
   width="128"
   height="128"
   id="svg3816"
   version="1.1"
   inkscape:version="0.48.2 r9819"
   sodipodi:docname="New document 4">
  <defs
     id="defs3818">
    <linearGradient
       gradientUnits="userSpaceOnUse"
       id="XMLID_12_"
       y2="47.785599"
       x2="101.25"
       y1="47.785599"
       x1="41">
		<stop
   offset="0"
   style="stop-color:#6085b9;stop-opacity:1"
   id="stop60" />

		<stop
   offset="1"
   style="stop-color:#37497a;stop-opacity:1"
   id="stop62" />

	</linearGradient>
    <linearGradient
       gradientTransform="matrix(1,0,-0.1353,0.9324,11.5082,5.4565)"
       gradientUnits="userSpaceOnUse"
       id="XMLID_11_"
       y2="86.503899"
       x2="94.035202"
       y1="86.503899"
       x1="85.463898">
		<stop
   offset="0"
   style="stop-color:#7c8271;stop-opacity:1"
   id="stop53" />

		<stop
   offset="1"
   style="stop-color:#786755;stop-opacity:1"
   id="stop55" />

	</linearGradient>
    <linearGradient
       gradientUnits="userSpaceOnUse"
       id="XMLID_10_"
       y2="91.774696"
       x2="49.125198"
       y1="75.538101"
       x1="18.681601">
		<stop
   offset="0"
   style="stop-color:#7c8271;stop-opacity:1"
   id="stop42" />

		<stop
   offset="1"
   style="stop-color:#786755;stop-opacity:1"
   id="stop44" />

	</linearGradient>
    <linearGradient
       gradientUnits="userSpaceOnUse"
       id="XMLID_9_"
       y2="73.522003"
       x2="57.2696"
       y1="26.521999"
       x1="70.269501">
		<stop
   offset="0"
   style="stop-color:#65a2dc;stop-opacity:1"
   id="stop33" />

		<stop
   offset="0.56739998"
   style="stop-color:#4e83c2;stop-opacity:1"
   id="stop35" />

		<stop
   offset="1"
   style="stop-color:#88aec2;stop-opacity:1"
   id="stop37" />

	</linearGradient>
    <radialGradient
       gradientUnits="userSpaceOnUse"
       id="XMLID_8_"
       r="94.8685"
       cy="46"
       cx="44">
		<stop
   offset="0"
   style="stop-color:#538ed4;stop-opacity:1"
   id="stop22" />

		<stop
   offset="1"
   style="stop-color:#001940;stop-opacity:1"
   id="stop24" />

	</radialGradient>
    <linearGradient
       gradientUnits="userSpaceOnUse"
       id="XMLID_7_"
       y2="114.0588"
       x2="119.5405"
       y1="24"
       x1="23.341299">
		<stop
   offset="0"
   style="stop-color:#f8f9f8;stop-opacity:1"
   id="stop11" />

		<stop
   offset="1"
   style="stop-color:#e7e7e6;stop-opacity:1"
   id="stop13" />

	</linearGradient>
  </defs>
  <sodipodi:namedview
     id="base"
     pagecolor="#ffffff"
     bordercolor="#666666"
     borderopacity="1.0"
     inkscape:pageopacity="0.0"
     inkscape:pageshadow="2"
     inkscape:zoom="2.7503168"
     inkscape:cx="135.44985"
     inkscape:cy="16.147231"
     inkscape:document-units="px"
     inkscape:current-layer="layer1"
     showgrid="false"
     inkscape:showpageshadow="false"
     inkscape:window-width="1920"
     inkscape:window-height="1138"
     inkscape:window-x="1912"
     inkscape:window-y="-8"
     inkscape:window-maximized="1" />
  <metadata
     id="metadata3821">
    <rdf:RDF>
      <cc:Work
         rdf:about="">
        <dc:format>image/svg+xml</dc:format>
        <dc:type
           rdf:resource="http://purl.org/dc/dcmitype/StillImage" />
        <dc:title></dc:title>
      </cc:Work>
    </rdf:RDF>
  </metadata>
  <g
     inkscape:label="Layer 1"
     inkscape:groupmode="layer"
     id="layer1"
     transform="translate(0,-924.36218)">
    <g
       style="overflow:visible"
       id="g3891"
       transform="matrix(0.80421836,0,0,0.80421836,11.725807,936.89221)">
      <g
         id="g2421">
        <path
           style="opacity:0.2;fill:#1a1a1a"
           id="path4"
           d="m 125,106 c 0,6.286 -2.713,9 -9,9 l -102,0 c -6.286,0 -9,-2.714 -9,-9 L 5,24 c 0,-6.287 2.714,-9 9,-9 l 102,0 c 6.287,0 9,2.713 9,9 l 0,82 z"
           inkscape:connector-curvature="0" />
        <path
           style="opacity:0.2;fill:#1a1a1a"
           id="path6"
           d="m 124.25,107 c 0,6.286 -2.68,9 -8.888,9 L 14.638,116 C 8.43,116 5.75,113.286 5.75,107 l 0,-82 c 0,-6.287 2.68,-9 8.888,-9 l 100.725,0 c 6.208,0 8.888,2.713 8.888,9 l 0,82 -0.001,0 z"
           inkscape:connector-curvature="0" />
        <path
           style="opacity:0.4;fill:#1a1a1a"
           id="path8"
           d="M 14,12 C 7.178,12 4,15.178 4,22 l 0,82 c 0,6.822 3.178,10 10,10 l 102,0 c 6.822,0 10,-3.178 10,-10 l 0,-82 c 0,-6.822 -3.178,-10 -10,-10 L 14,12 z"
           inkscape:connector-curvature="0" />
        <path
           style="fill:url(#XMLID_7_)"
           id="path15"
           d="m 125,104 c 0,6.286 -2.713,9 -9,9 l -102,0 c -6.286,0 -9,-2.714 -9,-9 L 5,22 c 0,-6.287 2.714,-9 9,-9 l 102,0 c 6.287,0 9,2.713 9,9 l 0,82 z"
           inkscape:connector-curvature="0" />
        <rect
           style="fill:#003a8f"
           id="rect17"
           y="36"
           x="16"
           height="52"
           width="98" />
        <rect
           style="fill:#ffffff"
           id="rect19"
           y="37"
           x="17"
           height="52"
           width="98" />
        <rect
           style="fill:url(#XMLID_8_)"
           id="rect26"
           y="50"
           x="16"
           height="38"
           width="98" />
        <rect
           style="fill:#296096"
           id="rect28"
           y="36"
           x="16"
           height="14"
           width="98" />
        <path
           style="fill:#52463a"
           id="path30"
           d="m 67,87.951 c -2.975,-3.135 -5.95,-6.269 -11.899,-6.269 -5.949,0 -20.823,-6.271 -20.823,-6.271 0,0 -11.899,-6.27 -17.849,-6.27 0,6.27 0,18.809 0,18.809 l 50.571,0 0,10e-4 z"
           inkscape:connector-curvature="0" />
        <path
           style="fill:url(#XMLID_9_)"
           id="path39"
           d="M 113,54.143 C 83,54.143 29,65.572 17,77 l 0,-40 96,0 0,17.143 z"
           inkscape:connector-curvature="0" />
        <path
           style="fill:url(#XMLID_10_)"
           id="path46"
           d="M 65.5,88 C 62.588,85.167 59.677,82.334 53.853,82.334 48.03,82.334 33.471,76.667 33.471,76.667 33.471,76.667 21.823,71 16,71 c 0,5.667 0,17 0,17 l 49.5,0 z"
           inkscape:connector-curvature="0" />
        <path
           style="fill:#cbc7b8"
           id="path48"
           d="m 17,77 c 1.74,-1.657 4.369,-3.314 7.675,-4.938 C 21.978,71.094 19.162,70.288 17,70.16 L 17,77 z"
           inkscape:connector-curvature="0" />
        <path
           style="fill:#52463a"
           id="path50"
           d="m 83.939,87.955 c 0,0 2.728,-4.596 6.291,-4.596 3.564,0 4.401,4.596 4.401,4.596 l -10.692,0 z"
           inkscape:connector-curvature="0" />
        <path
           style="fill:url(#XMLID_11_)"
           id="path57"
           d="m 85,87.955 c 0,0 2.187,-3.685 5.043,-3.685 2.857,0 3.528,3.685 3.528,3.685 l -8.571,0 z"
           inkscape:connector-curvature="0" />
        <path
           style="fill:url(#XMLID_12_)"
           id="path64"
           d="m 45.288,50.143 67.215,0 c -1.565,-2.777 -4.952,-4.714 -8.909,-4.714 l -49.395,0 c -3.958,0 -7.346,1.937 -8.911,4.714 z"
           inkscape:connector-curvature="0" />
        <path
           style="fill:#bcac8d"
           id="path66"
           d="m 27.793,76.766 c -1.633,-2.153 -4.843,-3.357 -5.856,-0.658 -1.012,2.697 -2.025,5.396 -2.025,5.396 l 6.983,4.161 0.898,-8.899 z"
           inkscape:connector-curvature="0" />
        <path
           style="fill:#56573f"
           id="path68"
           d="M 30.825,76.912 C 30.327,79.664 27,87 27,87 l -8,0 c 0,0 8.157,-11.922 9.991,-11.005 1.834,0.917 1.834,0.917 1.834,0.917 z"
           inkscape:connector-curvature="0" />
        <path
           style="fill:#3a434c"
           id="path70"
           d="m 30,86 c 0,0 5.228,-2.161 6.918,-3.625 1.69,-1.464 2.457,-3.311 2.457,-3.311 L 34.914,79.377 30,86 z"
           inkscape:connector-curvature="0" />
        <path
           style="fill:#bcac8d"
           id="path72"
           d="m 37,81 c -2,-1 -5,-1 -5,1 0,2 0,4 0,4 l 7,1 -2,-6 z"
           inkscape:connector-curvature="0" />
        <path
           style="fill:#bcac8d"
           id="path74"
           d="m 46,82.493 c -2,-0.751 -5,-0.751 -5,0.751 0,1.503 0,3.005 0,3.005 L 48,87 46,82.493 z"
           inkscape:connector-curvature="0" />
        <path
           style="fill:#94876f"
           id="path76"
           d="m 53.794,83.459 c -1.85,-0.699 -3.949,-0.699 -3.047,0.699 0.901,1.399 1.803,2.799 1.803,2.799 l 5.348,0.699 -4.104,-4.197 z"
           inkscape:connector-curvature="0" />
        <path
           style="fill:#53634c"
           id="path78"
           d="m 51,86 c 0,0 -4,-4 -6,-5 -2,-1 -4,-1 -4,-1 l 2,4 8,2 z"
           inkscape:connector-curvature="0" />
      </g>
    </g>
    <text
       xml:space="preserve"
       style="font-size:150.3727417px;font-style:normal;font-weight:normal;text-align:center;line-height:125%;letter-spacing:0px;word-spacing:0px;text-anchor:middle;fill:#000000;fill-opacity:1;stroke:none;font-family:Sans"
       x="62.55191"
       y="1041.4543"
       id="text3916"
       sodipodi:linespacing="125%"><tspan
         sodipodi:role="line"
         id="tspan3918"
         x="62.55191"
         y="1041.4543">?</tspan></text>
  </g>
</svg>
