<?xml version="1.0" encoding="UTF-8" standalone="no"?>
<!-- Created with Inkscape (http://www.inkscape.org/) -->

<svg
   xmlns:dc="http://purl.org/dc/elements/1.1/"
   xmlns:cc="http://creativecommons.org/ns#"
   xmlns:rdf="http://www.w3.org/1999/02/22-rdf-syntax-ns#"
   xmlns:svg="http://www.w3.org/2000/svg"
   xmlns="http://www.w3.org/2000/svg"
   xmlns:xlink="http://www.w3.org/1999/xlink"
   version="1.1"
   width="50"
   height="50"
   id="svg3030">
  <defs
     id="defs3032">
    <linearGradient
       id="linearGradient3045">
      <stop
         id="stop3047"
         style="stop-color:#4d4d4d;stop-opacity:1"
         offset="0" />
      <stop
         id="stop3049"
         style="stop-color:#00aad4;stop-opacity:1"
         offset="1" />
    </linearGradient>
    <filter
       color-interpolation-filters="sRGB"
       id="filter3755">
      <feGaussianBlur
         id="feGaussianBlur3757"
         stdDeviation="0.64" />
    </filter>
    <linearGradient
       x1="16.004606"
       y1="35.544228"
       x2="3.7860355"
       y2="18.16288"
       id="linearGradient3051"
       xlink:href="#linearGradient3045"
       gradientUnits="userSpaceOnUse"
       gradientTransform="translate(1.8198786,-0.36397569)" />
  </defs>
  <metadata
     id="metadata3035">
    <rdf:RDF>
      <cc:Work
         rdf:about="">
        <dc:format>image/svg+xml</dc:format>
        <dc:type
           rdf:resource="http://purl.org/dc/dcmitype/StillImage" />
        <dc:title></dc:title>
      </cc:Work>
    </rdf:RDF>
  </metadata>
  <path
     d="m 17.190389,5.990895 c -2.242726,0.076692 -5.49319,0.9582128 -5.504852,3.7263615 -0.0243,5.7684255 3.112359,6.3280705 3.112359,8.2361055 0,1.908034 -7.9396912,5.420163 -7.9396912,5.420163 l 0,3.239394 21.1513362,0 0,-3.239394 c 0,0 -7.93969,-3.512129 -7.93969,-5.420163 0,-1.908035 3.320127,-2.471371 3.112358,-8.2361055 C 23.075523,6.7571612 19.692577,5.9053307 17.190389,5.990895 z"
     id="path3934"
     style="fill:#4d4d4d;stroke:none" />
  <path
     d="m 28.85671,9.4098842 c -3.310198,0.1131948 -8.107787,1.4142948 -8.125,5.4999998 -0.03587,8.514027 4.59375,9.340046 4.59375,12.15625 0,2.816202 -11.71875,8 -11.71875,8 l 0,4.78125 31.21875,0 0,-4.78125 c 0,0 -11.71875,-5.183798 -11.71875,-8 0,-2.816204 4.900411,-3.647671 4.59375,-12.15625 -0.157466,-4.369013 -5.150595,-5.6262901 -8.84375,-5.4999998 z"
     id="path3033"
     style="fill:#00aad4;stroke:none" />
  <path
     d="m 11.038629,23.573524 c 0,0 -3.166514,11.914694 5.906249,12.53125 l 0.03125,2.25 6.5,-3.8125 -6.5625,-3.71875 0.03125,2.25 c -4.840103,-1.417999 -2.71875,-8.304796 -2.71875,-8.304796 z"
     id="path3037"
     style="fill:url(#linearGradient3051);fill-opacity:1;stroke:none" />
</svg>
