<?xml version="1.0" encoding="UTF-8" standalone="no"?>
<!-- Created with Inkscape (http://www.inkscape.org/) -->

<svg
   xmlns:dc="http://purl.org/dc/elements/1.1/"
   xmlns:cc="http://creativecommons.org/ns#"
   xmlns:rdf="http://www.w3.org/1999/02/22-rdf-syntax-ns#"
   xmlns:svg="http://www.w3.org/2000/svg"
   xmlns="http://www.w3.org/2000/svg"
   version="1.1"
   width="50"
   height="50"
   id="svg3030">
  <defs
     id="defs3032">
    <filter
       color-interpolation-filters="sRGB"
       id="filter3755">
      <feGaussianBlur
         stdDeviation="0.64"
         id="feGaussianBlur3757" />
    </filter>
  </defs>
  <metadata
     id="metadata3035">
    <rdf:RDF>
      <cc:Work
         rdf:about="">
        <dc:format>image/svg+xml</dc:format>
        <dc:type
           rdf:resource="http://purl.org/dc/dcmitype/StillImage" />
        <dc:title></dc:title>
      </cc:Work>
    </rdf:RDF>
  </metadata>
  <rect
     width="64"
     height="64"
     rx="4"
     ry="4"
     x="130.85715"
     y="289.93359"
     transform="matrix(0.74546756,0,0,0.74546756,-96.40472,-214.99105)"
     id="rect2985"
     style="fill:#000000;fill-opacity:1;stroke:none;filter:url(#filter3755)" />
  <rect
     width="47.709923"
     height="47.709923"
     rx="2.9818702"
     ry="2.9818702"
     x="1.145032"
     y="0.39957041"
     id="rect3049"
     style="fill:#e6e6e6;fill-opacity:1;stroke:none" />
  <path
     d="m 28.318287,8.1549226 c -2.253431,-2.6198891 -7.462708,-2.700341 -7.462708,-2.700341 0,0 -8.48139,0.1309862 -8.48139,5.5014204 0,8.514103 4.584535,9.365513 4.584535,12.181717 0,2.816202 -11.7233098,7.990158 -11.7233098,7.990158 l 0,4.780996 7.7895838,0"
     id="path3934"
     style="fill:none;stroke:#333333;stroke-width:1.74869215;stroke-linecap:butt;stroke-linejoin:miter;stroke-miterlimit:4;stroke-opacity:1;stroke-dasharray:none" />
  <path
     d="m 33.111643,27.045561 c -0.348029,-0.431705 -0.546465,-0.83423 -0.546465,-1.202223 0,-2.816204 4.562985,-3.672073 4.562985,-12.186177 0,-5.3704351 -8.470212,-5.4919763 -8.470212,-5.4919763 0,0 -8.470213,0.1215412 -8.470213,5.4919763 0,8.514104 4.562986,9.369973 4.562986,12.186177 0,2.816203 -11.721682,8.005717 -11.721682,8.005717 l 0,4.781571 9.891023,0"
     id="path3949"
     style="fill:none;stroke:#e6e6e6;stroke-width:3.49737811;stroke-linecap:butt;stroke-linejoin:miter;stroke-miterlimit:4;stroke-opacity:1;stroke-dasharray:none" />
  <path
     d="m 33.111643,27.045561 c -0.348029,-0.431705 -0.546465,-0.83423 -0.546465,-1.202223 0,-2.816204 4.562985,-3.672073 4.562985,-12.186177 0,-5.3704351 -8.470212,-5.4919763 -8.470212,-5.4919763 0,0 -8.470213,0.1215412 -8.470213,5.4919763 0,8.514104 4.562986,9.369973 4.562986,12.186177 0,2.816203 -11.721682,8.005717 -11.721682,8.005717 l 0,4.781571 11.063252,0"
     id="path3946"
     style="fill:none;stroke:#333333;stroke-width:1.74868906;stroke-linecap:butt;stroke-linejoin:miter;stroke-miterlimit:4;stroke-opacity:1;stroke-dasharray:none" />
  <path
     d="m 31.6875,25.84375 c 0,0.655294 0.301973,1.192629 0.6875,1.6875 0.385527,0.494871 0.886107,0.969573 1.46875,1.4375 0.493005,0.395938 1.069114,0.772275 1.65625,1.15625 l 3.34375,0 c -1.44204,-0.811661 -2.87372,-1.702013 -3.90625,-2.53125 -0.516265,-0.414618 -0.931997,-0.797031 -1.1875,-1.125 -0.255503,-0.327969 -0.3125,-0.576243 -0.3125,-0.625 0,-0.46794 -1.75,-0.940162 -1.75,0 z"
     id="path3010"
     style="font-size:medium;font-style:normal;font-variant:normal;font-weight:normal;font-stretch:normal;text-indent:0;text-align:start;text-decoration:none;line-height:normal;letter-spacing:normal;word-spacing:normal;text-transform:none;direction:ltr;block-progression:tb;writing-mode:lr-tb;text-anchor:start;baseline-shift:baseline;color:#000000;fill:#333333;fill-opacity:1;stroke:none;stroke-width:1.74868906;marker:none;visibility:visible;display:inline;overflow:visible;enable-background:accumulate;font-family:Sans;-inkscape-font-specification:Sans" />
  <rect
     width="19.713657"
     height="11.925296"
     x="25.291151"
     y="30.701212"
     transform="matrix(0.99999934,-0.00114721,0.00114621,0.99999934,0,0)"
     id="rect3157"
     style="fill:#333333;fill-opacity:1;stroke:none" />
  <path
     d="m 23.75514,30.674471 22.963216,-0.0272 -11.521541,8.056556 z"
     id="rect2998"
     style="fill:#333333;fill-opacity:1;stroke:#e6e6e6;stroke-width:1;stroke-opacity:1" />
</svg>
