<?xml version="1.0" encoding="UTF-8" standalone="no"?>
<!-- Created with Inkscape (http://www.inkscape.org/) -->

<svg
   xmlns:dc="http://purl.org/dc/elements/1.1/"
   xmlns:cc="http://creativecommons.org/ns#"
   xmlns:rdf="http://www.w3.org/1999/02/22-rdf-syntax-ns#"
   xmlns:svg="http://www.w3.org/2000/svg"
   xmlns="http://www.w3.org/2000/svg"
   xmlns:xlink="http://www.w3.org/1999/xlink"
   version="1.1"
   width="50"
   height="50"
   id="svg2">
  <defs
     id="defs4">
    <linearGradient
       id="linearGradient6780">
      <stop
         id="stop6782"
         style="stop-color:#ffffff;stop-opacity:1"
         offset="0" />
      <stop
         id="stop6784"
         style="stop-color:#b5b5b5;stop-opacity:1"
         offset="1" />
    </linearGradient>
    <linearGradient
       id="linearGradient6766">
      <stop
         id="stop6768"
         style="stop-color:#000000;stop-opacity:1"
         offset="0" />
      <stop
         id="stop6770"
         style="stop-color:#364e40;stop-opacity:1"
         offset="1" />
    </linearGradient>
    <linearGradient
       x1="10.220819"
       y1="10.986612"
       x2="52.553318"
       y2="50.82093"
       id="linearGradient6772"
       xlink:href="#linearGradient6766"
       gradientUnits="userSpaceOnUse" />
    <linearGradient
       x1="30.608797"
       y1="996.81781"
       x2="30.537344"
       y2="1047.1171"
       id="linearGradient6786"
       xlink:href="#linearGradient6780"
       gradientUnits="userSpaceOnUse" />
  </defs>
  <metadata
     id="metadata7">
    <rdf:RDF>
      <cc:Work
         rdf:about="">
        <dc:format>image/svg+xml</dc:format>
        <dc:type
           rdf:resource="http://purl.org/dc/dcmitype/StillImage" />
        <dc:title></dc:title>
      </cc:Work>
    </rdf:RDF>
  </metadata>
  <g
     transform="matrix(0.78125,0,0,0.78125,0,-772.15795)"
     id="layer1">
    <rect
       width="60"
       height="60"
       rx="10.702"
       ry="10.701975"
       x="2"
       y="990.36218"
       id="rect6778"
       style="fill:url(#linearGradient6786);fill-opacity:1;stroke:#000000;stroke-width:2" />
    <path
       d="M 8.96875,8.21875 8.90625,8.25 8.5625,8.3125 l 0,0.28125 C 8.514939,8.65235 8.4383974,8.67925 8.40625,8.75 8.393391,8.7783 8.353938,8.7825 8.34375,8.8125 L 8.3125,8.875 8.28125,8.9375 8.28125,9 c -0.00354,0.0376 -0.00118,0.0874 0,0.125 -6.023e-4,0.0189 -6.023e-4,0.01245 0,0.03125 5.899e-4,0.009 -8.849e-4,0.02185 0,0.03125 2.67e-4,0.0127 -8.009e-4,0.01865 0,0.03125 0,0.009 -3.012e-4,0.02185 0,0.03125 0,0.0195 -0.00128,0.0431 0,0.0625 L 8.53125,15 c 0.062304,0.9542 1.515494,0.90065 1.71875,0.09375 l 0.0625,1.65625 0.0625,0 c -0.0183,0.511 0.33989,0.9552 0.875,0.9375 0.353015,-0.012 0.582624,-0.2231 0.71875,-0.5 l 0.0625,1.3125 c 0.0135,0.2628 0.186103,0.5096 0.375,0.625 0.188897,0.1154 0.377072,0.1369 0.5625,0.125 0.185428,-0.012 0.389883,-0.07995 0.5625,-0.21875 0.165673,-0.1329 0.288491,-0.373 0.28125,-0.625 -3.04e-4,-0.01 8.09e-4,-0.02125 0,-0.03125 l -0.15625,-3.4375 17.03125,17.03125 -17.09375,17.125 0.1875,-3.53125 -0.0625,0 c 0.05868,-0.5719 -0.351495,-1.04135 -0.9375,-0.96875 l -0.15625,0 -0.125,0.125 c -0.0201,0.018 -0.04415,0.0425 -0.0625,0.0625 l 0.09375,0.09375 c -0.225434,0.1503 -0.485573,0.30535 -0.5,0.59375 C 12.030432,45.48475 11.99999,45.484 12,45.5 l -0.0625,1.46875 c -0.131088,-0.4318 -0.479573,-0.7495 -0.96875,-0.625 l -0.0625,0.03125 -0.0625,0 -0.09375,0.0625 c -0.0201,0.018 -0.04415,0.0435 -0.0625,0.0625 l 0.0625,0.0625 c -0.233015,0.1513 -0.454746,0.3297 -0.46875,0.625 l -0.0625,1.65625 c -0.06305,-0.4177 -0.3592017,-0.742 -0.8125,-0.75 l -0.09375,0 -0.0625,0.03125 -0.0625,0 C 9.147651,48.141 9.130813,48.1665 9.09375,48.1875 L 9.125,48.25 C 8.7922128,48.3785 8.5043144,48.59195 8.5,48.96875 l -0.25,5.625 0,0.03125 c -0.00312,0.048 -0.00468,0.10825 0,0.15625 l 0.03125,0 c -0.01777,0.4292 0.2171013,0.80375 0.65625,0.90625 0.082223,0.019 0.1668171,0 0.25,0 l 0,0.03125 c 0.0094,2e-4 0.021847,0 0.03125,0 0.0094,0 0.021849,2e-4 0.03125,0 0.0094,0 0.021849,2e-4 0.03125,0 0.00962,0 0.021632,3e-4 0.03125,0 L 15,55.46875 c 0.974862,-0.063 0.921059,-1.56735 0.0625,-1.71875 l 1.59375,-0.09375 0.09375,0 0,-0.03125 c 0.526192,0.037 0.955689,-0.3288 0.9375,-0.875 -0.01214,-0.3646 -0.239532,-0.58815 -0.53125,-0.71875 L 18.5,51.96875 C 19.544268,51.90175 19.450501,50.12 18.40625,50.1875 L 14.96875,50.34375 32,33.3125 49.03125,50.375 45.625,50.21875 l -0.0625,0 0,0.03125 c -0.572069,-0.059 -1.041098,0.38295 -0.96875,0.96875 l 0,0.15625 0.125,0.125 c 0.01835,0.02 0.0424,0.0445 0.0625,0.0625 l 0.0625,-0.09375 c 0.157791,0.2449 0.31042,0.5001 0.625,0.5 L 47,52.03125 c -0.454642,0.1148 -0.784235,0.496 -0.65625,1 l 0.03125,0.0625 0,0.0625 0.0625,0.09375 c 0.01835,0.02 0.0424,0.0445 0.0625,0.0625 L 46.5625,53.25 c 0.151496,0.2299 0.300745,0.45465 0.59375,0.46875 l 1.6875,0.0625 c -0.417646,0.063 -0.773041,0.3595 -0.78125,0.8125 l 0,0.09375 0.03125,0.03125 0.03125,0.09375 c 0.01654,0.039 0.04062,0.05775 0.0625,0.09375 L 48.25,54.875 c 0.137055,0.3099 0.357339,0.58945 0.71875,0.59375 L 54.625,55.75 c 0.01274,8e-4 0.0185,-3e-4 0.03125,0 0.02551,5e-4 0.03701,0 0.0625,0 0.03444,7e-4 0.05937,0 0.09375,0 l 0,-0.03125 c 0.486678,0.01 0.878899,-0.31 0.90625,-0.8125 5.79e-4,-0.019 5.79e-4,-0.0445 0,-0.0625 0.0013,-0.039 0.0038,-0.086 0,-0.125 l 0,-0.0625 L 55.6875,54.59375 55.4375,49 c -0.01261,-0.2631 -0.186083,-0.5091 -0.375,-0.625 -0.188917,-0.1159 -0.376934,-0.16795 -0.5625,-0.15625 -0.185566,0.012 -0.358318,0.08005 -0.53125,0.21875 -0.123066,0.099 -0.175293,0.28785 -0.21875,0.46875 l -0.09375,-1.5625 0,-0.125 -0.03125,0 c 0.0183,-0.5111 -0.33989,-0.9552 -0.875,-0.9375 -0.397403,0.013 -0.639396,0.2917 -0.75,0.625 L 51.9375,45.5 c -0.01178,-0.2635 -0.185823,-0.54005 -0.375,-0.65625 -0.189177,-0.1163 -0.376738,-0.1367 -0.5625,-0.125 -0.185762,0.012 -0.358102,0.08005 -0.53125,0.21875 -0.173148,0.139 -0.333745,0.39325 -0.3125,0.65625 l 0.1875,3.4375 L 33.3125,32 50.40625,14.875 50.25,18.34375 l 0,0.0625 0.03125,0 c -0.05853,0.5719 0.351603,1.04125 0.9375,0.96875 l 0.15625,0 0.125,-0.125 c 0.0201,-0.018 0.04415,-0.01125 0.0625,-0.03125 l -0.09375,-0.0625 C 51.737917,19.00285 52.000214,18.8316 52,18.5 l 0.0625,-1.53125 c 0.114669,0.4547 0.495633,0.78455 1,0.65625 l 0.125,-0.03125 0.09375,-0.0625 c 0.0201,-0.018 0.0129,-0.0435 0.03125,-0.0625 L 53.25,17.40625 c 0.229708,-0.1515 0.454635,-0.30105 0.46875,-0.59375 l 0.0625,-1.75 c 0.03366,0.452 0.334603,0.83525 0.8125,0.84375 l 0.125,0 L 54.75,15.875 54.8125,15.84375 c 0.03985,-0.016 0.08794,-0.01025 0.125,-0.03125 L 54.875,15.71875 C 55.196275,15.58565 55.495679,15.369 55.5,15 l 0.28125,-5.65625 c 0.0025,-0.0386 0.0025,-0.05515 0,-0.09375 L 55.75,9.0625 55.6875,9 l 0,-0.125 -0.125,-0.15625 C 55.54424,8.69915 55.51995,8.7053 55.5,8.6875 55.40303,8.53364 55.301206,8.38388 55.125,8.3125 l -0.03125,-0.03125 -0.03125,0 c -0.08041,-0.018 -0.168712,-0.004 -0.25,0 -0.04064,0.002 -0.08466,-0.008 -0.125,0 -0.01008,0.002 -0.0212,-0.002 -0.03125,0 L 49,8.53125 c -0.951856,0.0615 -0.894253,1.47682 -0.09375,1.6875 l -1.5625,0.09375 -0.09375,0 0,0.03125 c -0.52441,-0.0347 -0.955652,0.33005 -0.9375,0.875 0.01299,0.38993 0.269785,0.6343 0.59375,0.75 L 45.5,12.03125 c -1.032941,0.067 -0.919349,1.80895 0.09375,1.78125 0.01104,-3e-4 0.02,7e-4 0.03125,0 L 49.0625,13.625 32,30.6875 14.90625,13.5625 l 3.46875,0.15625 0.0625,0 c 0.0034,3e-4 -0.0033,-0.03225 0,-0.03125 0.570554,0.057 1.040799,-0.3529 0.96875,-0.9375 l -0.03125,-0.09375 0,-0.0625 -0.09375,-0.125 c -0.01835,-0.02 -0.0424,-0.0435 -0.0625,-0.0625 l -0.0625,0.0625 C 19.007321,12.23355 18.826625,12.0149 18.53125,12 c -0.0073,-4e-4 0.0074,-0.03125 0,-0.03125 l -0.03125,0 -1.53125,-0.0625 c 0.46108,-0.11 0.81677,-0.49169 0.6875,-1 L 17.625,10.78125 17.53125,10.6875 C 17.51289,10.6677 17.48884,10.643 17.46875,10.625 l -0.0625,0.09375 C 17.253799,10.49858 17.098382,10.26368 16.8125,10.25 l -1.71875,-0.0625 c 0.452257,-0.0335 0.804012,-0.33463 0.8125,-0.8125 l 0,-0.21875 L 15.78125,9 C 15.76289,8.9802 15.73884,8.98675 15.71875,8.96875 L 15.625,9.0625 c -0.143441,-0.24552 -0.290274,-0.512 -0.59375,-0.53125 -0.0077,-4.9e-4 0.0078,-0.03095 0,-0.03125 L 15,8.5 9.40625,8.21875 c -0.010723,-10e-4 -0.020508,9.7e-4 -0.03125,0 -0.010742,-9.7e-4 -0.020496,5.8e-4 -0.03125,0 -0.054445,-0.0122 -0.101195,0.002 -0.15625,0 -0.077077,-0.003 -0.1425274,-0.0171 -0.21875,0 z"
       transform="translate(0,988.36218)"
       id="path6693"
       style="font-size:medium;font-style:normal;font-variant:normal;font-weight:normal;font-stretch:normal;text-indent:0;text-align:start;text-decoration:none;line-height:normal;letter-spacing:normal;word-spacing:normal;text-transform:none;direction:ltr;block-progression:tb;writing-mode:lr-tb;text-anchor:start;baseline-shift:baseline;color:#000000;fill:url(#linearGradient6772);fill-opacity:1;stroke:none;stroke-width:1;marker:none;visibility:visible;display:inline;overflow:visible;enable-background:accumulate;font-family:Sans;-inkscape-font-specification:Sans" />
  </g>
</svg>
