<?xml version="1.0" encoding="UTF-8" standalone="no"?>
<!-- Created with Inkscape (http://www.inkscape.org/) -->

<svg
   xmlns:dc="http://purl.org/dc/elements/1.1/"
   xmlns:cc="http://creativecommons.org/ns#"
   xmlns:rdf="http://www.w3.org/1999/02/22-rdf-syntax-ns#"
   xmlns:svg="http://www.w3.org/2000/svg"
   xmlns="http://www.w3.org/2000/svg"
   version="1.1"
   width="50"
   height="50"
   id="svg3030">
  <defs
     id="defs3032">
    <filter
       color-interpolation-filters="sRGB"
       id="filter3755">
      <feGaussianBlur
         id="feGaussianBlur3757"
         stdDeviation="0.64" />
    </filter>
  </defs>
  <metadata
     id="metadata3035">
    <rdf:RDF>
      <cc:Work
         rdf:about="">
        <dc:format>image/svg+xml</dc:format>
        <dc:type
           rdf:resource="http://purl.org/dc/dcmitype/StillImage" />
        <dc:title></dc:title>
      </cc:Work>
    </rdf:RDF>
  </metadata>
  <rect
     width="64"
     height="64"
     rx="4"
     ry="4"
     x="130.85715"
     y="289.93359"
     transform="matrix(0.74546756,0,0,0.74546756,-96.40472,-214.99105)"
     id="rect2985"
     style="fill:#000000;fill-opacity:1;stroke:none;filter:url(#filter3755)" />
  <rect
     width="47.709923"
     height="47.709923"
     rx="2.9818702"
     ry="2.9818702"
     x="1.145032"
     y="0.39957041"
     id="rect3049"
     style="fill:#e6e6e6;fill-opacity:1;stroke:none" />
  <g
     transform="translate(-94.720237,1.4766992)"
     id="g3055">
    <rect
       width="37.682266"
       height="24.978563"
       x="100.8791"
       y="17.034729"
       id="rect3010"
       style="opacity:0;fill:#ffffff;fill-opacity:1;stroke:none" />
    <path
       d="m 100.94722,40.504477 0,-21.960932 12.12409,10.980466 z"
       id="path3012"
       style="fill:#4d4d4d;fill-opacity:1;stroke:#4d4d4d;stroke-linejoin:round" />
    <path
       d="m 138.56136,40.504477 0,-21.960932 -12.12409,10.980466 z"
       id="path3015"
       style="fill:#4d4d4d;fill-opacity:1;stroke:#4d4d4d;stroke-linejoin:round" />
    <path
       d="m 118.25,1.5 -15.90625,15.5625 12.8125,11.28125 9.15625,0 L 137.125,17.0625 121.25,1.5 l -3,0 z"
       id="path3035"
       style="fill:#4d4d4d;fill-opacity:1;stroke:#4d4d4d;stroke-linejoin:round" />
    <path
       d="M 115.15625,30.71875 102.34375,42 137.125,42 124.3125,30.71875 l -9.15625,0 z"
       id="path3017"
       style="fill:#4d4d4d;fill-opacity:1;stroke:#4d4d4d;stroke-linejoin:round" />
    <path
       d="m 108.84375,5.9375 0,16.84375 6.3125,5.5625 9.15625,0 6.3125,-5.5625 0,-16.84375 -4.84375,0 -12.0625,0 z"
       id="rect3040"
       style="fill:#e6e6e6;fill-opacity:1;stroke:#4d4d4d" />
    <path
       d="m 119.55997,8.295181 c -1.60643,0.054927 -3.93468,0.6862817 -3.94303,2.668855 -0.0174,4.131401 2.22933,4.532224 2.22933,5.898777 0,1.366552 -5.68707,3.881972 -5.68707,3.881972 l 0,2.320084 15.15035,0 0,-2.320084 c 0,0 -5.68707,-2.51542 -5.68707,-3.881972 0,-1.366553 2.37816,-1.770019 2.22933,-5.898777 -0.0763,-2.1200476 -2.49957,-2.7301368 -4.29184,-2.668855 z"
       id="path3033"
       style="fill:#00aad4;fill-opacity:1;stroke:#00aad4;stroke-width:1;stroke-linejoin:round;stroke-opacity:1" />
  </g>
</svg>
