<?xml version="1.0" encoding="UTF-8" standalone="no"?>
<!-- Created with Inkscape (http://www.inkscape.org/) -->

<svg
   xmlns:dc="http://purl.org/dc/elements/1.1/"
   xmlns:cc="http://creativecommons.org/ns#"
   xmlns:rdf="http://www.w3.org/1999/02/22-rdf-syntax-ns#"
   xmlns:svg="http://www.w3.org/2000/svg"
   xmlns="http://www.w3.org/2000/svg"
   xmlns:xlink="http://www.w3.org/1999/xlink"
   version="1.1"
   width="50"
   height="50"
   id="svg3030">
  <defs
     id="defs3032">
    <pattern
       patternTransform="matrix(0,0.24717875,-0.24717875,0,4.4234491,29.346339)"
       id="pattern5205"
       xlink:href="#Strips1_10" />
    <pattern
       patternUnits="userSpaceOnUse"
       width="11"
       height="1"
       patternTransform="translate(0,0) scale(10,10)"
       id="Strips1_10">
      <rect
         style="fill:black;stroke:none"
         x="0"
         y="-0.5"
         width="1"
         height="2"
         id="rect4524" />
    </pattern>
  </defs>
  <metadata
     id="metadata3035">
    <rdf:RDF>
      <cc:Work
         rdf:about="">
        <dc:format>image/svg+xml</dc:format>
        <dc:type
           rdf:resource="http://purl.org/dc/dcmitype/StillImage" />
        <dc:title></dc:title>
      </cc:Work>
    </rdf:RDF>
  </metadata>
  <path
     d="m 2,23.902649 46,0 0,22 -46,0 z"
     id="rect2989"
     style="fill:url(#pattern5205);fill-opacity:1;stroke:none" />
  <path
     d="M 13.84375,9.1875 C 13.627261,9.187509 13.499998,9.3363606 13.5,9.625 l 0,1.90625 -1.1875,0 c -0.288649,6e-6 -0.437502,0.12727 -0.4375,0.34375 -2e-6,0.221647 0.148851,0.312506 0.4375,0.3125 l 1.1875,0 0,4.34375 c -2e-6,0.659769 0.265803,1.149499 0.78125,1.5 C 14.729682,18.335361 15.309301,18.5 16,18.5 c 0.582445,0 1.204593,-0.111477 1.84375,-0.3125 0.865937,-0.26803 1.281242,-0.507741 1.28125,-0.75 -8e-6,-0.216485 -0.106331,-0.343749 -0.3125,-0.34375 -0.05671,1e-6 -0.136611,0.02674 -0.25,0.09375 -0.309274,0.185561 -0.745196,0.345044 -1.28125,0.46875 -0.499987,0.118548 -0.946864,0.1875 -1.34375,0.1875 -0.484522,0 -0.873084,-0.08538 -1.1875,-0.28125 -0.386586,-0.231949 -0.593754,-0.577658 -0.59375,-1.03125 l 0,-4.34375 3.53125,0 c 0.288641,6e-6 0.437493,-0.09601 0.4375,-0.3125 -7e-6,-0.221635 -0.148859,-0.343744 -0.4375,-0.34375 l -3.53125,0 0,-1.90625 c -4e-6,-0.2886394 -0.09086,-0.437491 -0.3125,-0.4375 z m 19,0 C 32.627261,9.187509 32.499997,9.3363606 32.5,9.625 l 0,1.90625 -1.1875,0 c -0.288649,6e-6 -0.437501,0.12727 -0.4375,0.34375 -1e-6,0.221647 0.148851,0.312506 0.4375,0.3125 l 1.1875,0 0,4.34375 c -3e-6,0.659769 0.265803,1.149499 0.78125,1.5 C 33.729682,18.335361 34.309301,18.5 35,18.5 c 0.582445,0 1.173343,-0.111477 1.8125,-0.3125 0.865937,-0.26803 1.312491,-0.507741 1.3125,-0.75 -9e-6,-0.216485 -0.10633,-0.343749 -0.3125,-0.34375 -0.05671,1e-6 -0.13661,0.02674 -0.25,0.09375 -0.309274,0.185561 -0.745196,0.345044 -1.28125,0.46875 -0.499986,0.118548 -0.946864,0.1875 -1.34375,0.1875 -0.484521,0 -0.873084,-0.08538 -1.1875,-0.28125 -0.386586,-0.231949 -0.593753,-0.577658 -0.59375,-1.03125 l 0,-4.34375 3.53125,0 c 0.288641,6e-6 0.437493,-0.09601 0.4375,-0.3125 -7e-6,-0.221635 -0.148859,-0.343744 -0.4375,-0.34375 l -3.53125,0 0,-1.90625 c -3e-6,-0.2886394 -0.09086,-0.437491 -0.3125,-0.4375 z m -26.875,2.125 c -0.675235,7e-6 -1.2606555,0.143381 -1.78125,0.40625 -0.6546156,0.335045 -1.000002,0.792878 -1,1.40625 -2e-6,0.309271 0.1166294,0.606974 0.3125,0.875 0.2422559,0.329888 0.6201859,0.574429 1.15625,0.71875 0.2783359,0.07732 0.7255371,0.120496 1.375,0.1875 1.6442584,0.170099 2.4687427,0.669817 2.46875,1.46875 -7.3e-6,0.51029 -0.3138203,0.88822 -0.9375,1.15625 -0.463905,0.201024 -0.9800542,0.3125 -1.5625,0.3125 -0.5721465,0 -1.0457666,-0.08506 -1.4375,-0.25 C 3.8666486,17.310257 3.5312477,16.895599 3.53125,16.375 3.5312477,16.137898 3.4091386,16.031252 3.1875,16.03125 c -0.216488,2e-6 -0.3125016,0.148854 -0.3125,0.4375 l 0,1.34375 c -1.6e-6,0.288649 0.096012,0.4375 0.3125,0.4375 0.067006,0 0.130799,-0.02642 0.1875,-0.0625 C 3.4677777,18.125647 3.4999978,17.971318 3.5,17.71875 4.1546104,18.239348 5.0055137,18.5 6.03125,18.5 6.8147186,18.5 7.5112926,18.340516 8.09375,18.03125 8.8153634,17.649823 9.1562421,17.096622 9.15625,16.375 9.1562421,15.539984 8.6771441,14.949409 7.6875,14.59375 7.3473012,14.475201 6.7248295,14.353092 5.8125,14.25 5.1269562,14.172687 4.658814,14.081828 4.40625,13.9375 4.0454368,13.731327 3.8437475,13.465521 3.84375,13.15625 c -2.5e-6,-0.273179 0.1646355,-0.528354 0.46875,-0.75 0.4020425,-0.293797 0.9607207,-0.437493 1.6875,-0.4375 0.7009978,7e-6 1.2699847,0.148858 1.6875,0.4375 0.2886417,0.201029 0.4378165,0.440739 0.46875,0.75 0.020611,0.242263 0.1166244,0.375005 0.3125,0.375 0.2216333,5e-6 0.3437424,-0.148847 0.34375,-0.4375 l 0,-1.125 c -7.6e-6,-0.293797 -0.1221167,-0.437494 -0.34375,-0.4375 -0.2164933,6e-6 -0.3125069,0.154013 -0.3125,0.4375 C 7.5944102,11.53063 6.8656161,11.312507 5.96875,11.3125 z m 18.9375,0 c -0.40205,7e-6 -0.998103,0.09602 -1.8125,0.3125 -0.510291,0.134022 -0.80284,0.23519 -0.875,0.3125 -0.05155,0.05155 -0.0625,0.13113 -0.0625,0.21875 -2e-6,0.216492 0.08022,0.343756 0.28125,0.34375 0.05154,0 0.15271,-0.0422 0.3125,-0.09375 0.917486,-0.293797 1.625015,-0.437493 2.125,-0.4375 0.505129,7e-6 0.951684,0.0957 1.3125,0.28125 0.453584,0.23711 0.687493,0.572511 0.6875,1.03125 l 0,1.0625 c -0.788635,-0.159781 -1.506473,-0.249996 -2.125,-0.25 -0.865949,4e-6 -1.595066,0.191061 -2.21875,0.53125 -0.773167,0.427821 -1.156251,1.013565 -1.15625,1.8125 -1e-6,0.654614 0.234555,1.186226 0.75,1.5625 0.458743,0.329883 1.038362,0.5 1.71875,0.5 1.072118,0 2.087982,-0.393717 3.03125,-1.1875 l 0,0.9375 1.5,0 c 0.293795,0 0.468741,-0.127263 0.46875,-0.34375 -9e-6,-0.216485 -0.174955,-0.312499 -0.46875,-0.3125 l -0.84375,0 0,-4.3125 c -7e-6,-0.63399 -0.29771,-1.134029 -0.875,-1.5 -0.494832,-0.319568 -1.085083,-0.468743 -1.75,-0.46875 z m 19.03125,0 c -0.675235,7e-6 -1.260655,0.143381 -1.78125,0.40625 -0.654615,0.335045 -1.000002,0.792878 -1,1.40625 -2e-6,0.309271 0.11663,0.606974 0.3125,0.875 0.242256,0.329888 0.620186,0.574429 1.15625,0.71875 0.278336,0.07732 0.756787,0.1205 1.40625,0.1875 1.644259,0.170099 2.468742,0.669815 2.46875,1.46875 -8e-6,0.51029 -0.313821,0.88822 -0.9375,1.15625 -0.463905,0.201024 -0.980054,0.3125 -1.5625,0.3125 -0.572146,0 -1.077017,-0.08506 -1.46875,-0.25 C 41.835399,17.310257 41.499998,16.895599 41.5,16.375 c -2e-6,-0.237102 -0.122112,-0.343748 -0.34375,-0.34375 -0.216488,2e-6 -0.312501,0.148854 -0.3125,0.4375 l 0,1.34375 c -10e-7,0.288649 0.09601,0.4375 0.3125,0.4375 0.06701,0 0.1308,-0.02642 0.1875,-0.0625 0.09278,-0.06185 0.156248,-0.216182 0.15625,-0.46875 0.654611,0.520598 1.474264,0.78125 2.5,0.78125 0.783469,0 1.480043,-0.159484 2.0625,-0.46875 0.721613,-0.381427 1.062493,-0.934628 1.0625,-1.65625 -7e-6,-0.835016 -0.479106,-1.425591 -1.46875,-1.78125 -0.340199,-0.118549 -0.96267,-0.240658 -1.875,-0.34375 -0.685543,-0.07731 -1.153686,-0.168172 -1.40625,-0.3125 -0.360814,-0.206173 -0.562503,-0.471979 -0.5625,-0.78125 -3e-6,-0.273179 0.164636,-0.528354 0.46875,-0.75 0.402043,-0.293797 0.960721,-0.437493 1.6875,-0.4375 0.700998,7e-6 1.269985,0.148858 1.6875,0.4375 0.288642,0.201029 0.43782,0.440739 0.46875,0.75 0.02061,0.242263 0.147874,0.375005 0.34375,0.375 0.221633,5e-6 0.312492,-0.148847 0.3125,-0.4375 l 0,-1.125 c -8e-6,-0.293797 -0.09087,-0.437494 -0.3125,-0.4375 -0.216493,6e-6 -0.343757,0.154013 -0.34375,0.4375 -0.56184,-0.43812 -1.290634,-0.656243 -2.1875,-0.65625 z M 24.8125,14.75 c 0.768006,4e-6 1.469734,0.07991 2.0625,0.25 l 0,1.4375 c -0.979349,0.938108 -2.005846,1.40625 -3.0625,1.40625 -0.494829,0 -0.894023,-0.101168 -1.21875,-0.3125 C 22.21232,17.283838 21.999998,16.906555 22,16.4375 c -2e-6,-0.422661 0.222952,-0.758386 0.625,-1.0625 0.536058,-0.407197 1.24939,-0.624996 2.1875,-0.625 z"
     id="path5212"
     style="font-size:15.83442497px;font-style:normal;font-variant:normal;font-weight:normal;font-stretch:normal;text-align:center;line-height:125%;letter-spacing:0px;word-spacing:0px;text-anchor:middle;fill:#808000;fill-opacity:1;stroke:none;font-family:Rod;-inkscape-font-specification:Rod" />
  <path
     d="m 2.065678,45.784005 0,-21.716102"
     id="path5207"
     style="fill:none;stroke:#000000;stroke-width:0.25;stroke-linecap:butt;stroke-linejoin:miter;stroke-opacity:1" />
  <path
     d="m 2.0127119,45.889937 6.4618644,-11.440678 9.0042377,3.283898 7.415254,-5.720339 10.487288,3.177967 3.495763,5.190678 8.156779,-8.15678"
     id="path5209"
     style="fill:none;stroke:#0000ff;stroke-width:1px;stroke-linecap:butt;stroke-linejoin:miter;stroke-opacity:1" />
</svg>
