<?xml version="1.0" encoding="UTF-8" standalone="no"?>
<!-- Created with Inkscape (http://www.inkscape.org/) -->

<svg
   xmlns:dc="http://purl.org/dc/elements/1.1/"
   xmlns:cc="http://creativecommons.org/ns#"
   xmlns:rdf="http://www.w3.org/1999/02/22-rdf-syntax-ns#"
   xmlns:svg="http://www.w3.org/2000/svg"
   xmlns="http://www.w3.org/2000/svg"
   version="1.1"
   width="50"
   height="50"
   id="svg3030">
  <defs
     id="defs3032">
    <filter
       color-interpolation-filters="sRGB"
       id="filter3755">
      <feGaussianBlur
         id="feGaussianBlur3757"
         stdDeviation="0.64" />
    </filter>
    <filter
       x="-0.28250533"
       y="-0.17924219"
       width="1.5650107"
       height="1.3584844"
       color-interpolation-filters="sRGB"
       id="filter3092">
      <feGaussianBlur
         id="feGaussianBlur3094"
         stdDeviation="1.3375414" />
    </filter>
    <filter
       x="-0.24483782"
       y="-0.15534328"
       width="1.4896756"
       height="1.3106866"
       color-interpolation-filters="sRGB"
       id="filter3096">
      <feGaussianBlur
         id="feGaussianBlur3098"
         stdDeviation="1.3188725" />
    </filter>
    <filter
       x="-0.33900645"
       y="-0.21509053"
       width="1.6780128"
       height="1.4301811"
       color-interpolation-filters="sRGB"
       id="filter3100">
      <feGaussianBlur
         id="feGaussianBlur3102"
         stdDeviation="1.3871099" />
    </filter>
    <filter
       x="-0.19775377"
       y="-0.12546949"
       width="1.3955075"
       height="1.250939"
       color-interpolation-filters="sRGB"
       id="filter3104">
      <feGaussianBlur
         id="feGaussianBlur3106"
         stdDeviation="1.0046575" />
    </filter>
    <filter
       x="-0.17892"
       y="-0.11352002"
       width="1.3578399"
       height="1.2270401"
       color-interpolation-filters="sRGB"
       id="filter3108">
      <feGaussianBlur
         id="feGaussianBlur3110"
         stdDeviation="0.83697684" />
    </filter>
  </defs>
  <metadata
     id="metadata3035">
    <rdf:RDF>
      <cc:Work
         rdf:about="">
        <dc:format>image/svg+xml</dc:format>
        <dc:type
           rdf:resource="http://purl.org/dc/dcmitype/StillImage" />
        <dc:title></dc:title>
      </cc:Work>
    </rdf:RDF>
  </metadata>
  <rect
     width="64"
     height="64"
     rx="4"
     ry="4"
     x="130.85715"
     y="289.93359"
     transform="matrix(0.74546756,0,0,0.74546756,-96.40472,-214.99105)"
     id="rect2985"
     style="fill:#000000;fill-opacity:1;stroke:none;filter:url(#filter3755)" />
  <rect
     width="47.709923"
     height="47.709923"
     rx="2.9818702"
     ry="2.9818702"
     x="1.145032"
     y="0.39957041"
     id="rect3049"
     style="fill:#e6e6e6;fill-opacity:1;stroke:none" />
  <path
     d="m 23.183185,37.716512 c -0.007,-0.249128 -0.01036,-0.435977 -0.01036,-0.560548 -6e-6,-0.733563 0.103797,-1.366783 0.311413,-1.899658 0.152247,-0.401379 0.39792,-0.806219 0.737021,-1.214533 0.249138,-0.297567 0.697228,-0.731825 1.344296,-1.302767 0.647049,-0.570922 1.067465,-1.025942 1.261244,-1.365049 0.193762,-0.33909 0.290646,-0.709332 0.290657,-1.110725 -1.4e-5,-0.726632 -0.283752,-1.365037 -0.85121,-1.915226 -0.567489,-0.550157 -1.262986,-0.825242 -2.086508,-0.825259 -0.795851,1.7e-5 -1.46021,0.249152 -1.993077,0.747407 -0.532872,0.498283 -0.882354,1.276831 -1.048444,2.335639 l -1.920413,-0.228378 c 0.173008,-1.418669 0.686852,-2.505176 1.541518,-3.259512 0.854669,-0.754311 1.984431,-1.131469 3.389274,-1.131486 1.487886,1.7e-5 2.674729,0.404862 3.560553,1.21453 0.8858,0.809705 1.328705,1.788943 1.328715,2.937717 -10e-6,0.66437 -0.15572,1.276826 -0.467131,1.837363 -0.311428,0.560568 -0.920421,1.242228 -1.826982,2.04499 -0.609001,0.5398 -1.00693,0.93772 -1.193774,1.193768 -0.186855,0.256062 -0.325264,0.550182 -0.415224,0.882353 -0.08998,0.332183 -0.141874,0.871978 -0.155708,1.619374 z m -0.114191,3.747405 0,-2.128028 2.128025,0 0,2.128028 z"
     id="path3054"
     style="font-size:40px;font-style:normal;font-weight:normal;text-align:center;line-height:125%;letter-spacing:0px;word-spacing:0px;text-anchor:middle;fill:#aa0088;fill-opacity:1;stroke:none;filter:url(#filter3100);font-family:Sans" />
  <path
     d="m 33.447153,32.80348 c -0.0095,-0.327976 -0.01368,-0.573966 -0.01368,-0.737968 -7e-6,-0.96573 0.136654,-1.799357 0.409989,-2.500893 0.200424,-0.528411 0.523853,-1.06139 0.970291,-1.59893 0.327975,-0.391752 0.917895,-0.963447 1.769752,-1.715095 0.851843,-0.751618 1.405319,-1.350654 1.660426,-1.797084 0.255094,-0.446412 0.382647,-0.933837 0.382655,-1.462273 -8e-6,-0.956611 -0.373552,-1.797069 -1.120622,-2.521397 -0.747091,-0.724275 -1.662718,-1.086429 -2.746881,-1.086445 -1.047743,1.6e-5 -1.922367,0.328002 -2.62389,0.983952 -0.701525,0.655986 -1.161621,1.680945 -1.380279,3.074871 l -2.52823,-0.300659 c 0.227775,-1.867681 0.904248,-3.29806 2.029419,-4.291149 1.12517,-0.993048 2.612493,-1.489578 4.461976,-1.489598 1.958795,2e-5 3.521283,0.532994 4.687467,1.598934 1.166157,1.065968 1.749246,2.355129 1.749263,3.8675 -1.7e-5,0.874641 -0.205015,1.68094 -0.614981,2.418893 -0.409999,0.737976 -1.211732,1.635386 -2.405229,2.692215 -0.801748,0.710645 -1.325619,1.234514 -1.571599,1.571602 -0.246003,0.337107 -0.428216,0.724314 -0.546644,1.161617 -0.118446,0.437319 -0.186779,1.147959 -0.20499,2.131907 z m -0.150327,4.933456 0,-2.801541 2.801549,0 0,2.801541 z"
     id="path3058"
     style="font-size:40px;font-style:normal;font-weight:normal;text-align:center;line-height:125%;letter-spacing:0px;word-spacing:0px;text-anchor:middle;fill:#000080;fill-opacity:1;stroke:none;filter:url(#filter3096);font-family:Sans" />
  <path
     d="m 18.617154,25.546344 c -0.0086,-0.30933 -0.0129,-0.541324 -0.01289,-0.695993 -3e-6,-0.910801 0.128877,-1.697026 0.386659,-2.35866 0.189034,-0.498357 0.494065,-1.001022 0.915113,-1.50799 0.309317,-0.369472 0.865685,-0.908652 1.669093,-1.617549 0.803398,-0.708874 1.325395,-1.273832 1.565998,-1.694879 0.240578,-0.421027 0.360875,-0.880728 0.360888,-1.379106 -1.3e-5,-0.902202 -0.352308,-1.694862 -1.056884,-2.377991 -0.704599,-0.683092 -1.56815,-1.024644 -2.590653,-1.024663 -0.988149,1.9e-5 -1.813038,0.309354 -2.474657,0.927995 -0.661633,0.618684 -1.095555,1.585344 -1.301772,2.899988 l -2.384427,-0.283554 c 0.214808,-1.761455 0.852805,-3.110487 1.913985,-4.047091 1.06119,-0.936572 2.463913,-1.404862 4.208207,-1.404883 1.847392,2.1e-5 3.321013,0.502687 4.420871,1.507991 1.099833,1.005347 1.649752,2.221192 1.649767,3.647541 -1.5e-5,0.824895 -0.19334,1.585336 -0.58,2.281322 -0.386677,0.696006 -1.142816,1.542371 -2.268432,2.539099 -0.756153,0.670227 -1.250223,1.164302 -1.48221,1.482213 -0.232013,0.317938 -0.403868,0.683117 -0.515555,1.095552 -0.11171,0.412447 -0.176158,1.082668 -0.193333,2.010658 z m -0.141774,4.65287 0,-2.642209 2.642209,0 0,2.642209 z"
     id="path3060"
     style="font-size:40px;font-style:normal;font-weight:normal;text-align:center;line-height:125%;letter-spacing:0px;word-spacing:0px;text-anchor:middle;fill:#008000;fill-opacity:1;stroke:none;filter:url(#filter3104);font-family:Sans" />
  <path
     d="m 30.014288,23.397326 c -0.0076,-0.288273 -0.01207,-0.504488 -0.01207,-0.64863 -6e-6,-0.848814 0.120112,-1.581515 0.360349,-2.198118 0.176165,-0.464441 0.460433,-0.932895 0.85283,-1.405354 0.288265,-0.344327 0.806773,-0.846811 1.555496,-1.507456 0.748712,-0.660628 1.235179,-1.187135 1.459403,-1.579529 0.224208,-0.392361 0.336319,-0.820776 0.336328,-1.285232 -9e-6,-0.840802 -0.328328,-1.579518 -0.984948,-2.216145 -0.656645,-0.636599 -1.46142,-0.954905 -2.414331,-0.954919 -0.920895,1.4e-5 -1.689641,0.288294 -2.306223,0.864835 -0.616602,0.576569 -1.020995,1.477438 -1.213175,2.702601 l -2.22212,-0.26425 c 0.200195,-1.641572 0.794771,-2.898784 1.783723,-3.771644 0.988947,-0.872825 2.296208,-1.3092416 3.921785,-1.3092616 1.721657,2e-5 3.09498,0.4684716 4.119976,1.4053546 1.024976,0.936928 1.537471,2.070012 1.537485,3.399283 -1.4e-5,0.768752 -0.180188,1.477442 -0.540526,2.126054 -0.360354,0.648638 -1.065029,1.437395 -2.114037,2.36628 -0.704688,0.624613 -1.165131,1.085056 -1.381333,1.381336 -0.216215,0.296297 -0.376375,0.636617 -0.480462,1.020987 -0.104111,0.38437 -0.164166,1.008977 -0.180173,1.873808 z m -0.132118,4.336182 0,-2.462375 2.462372,0 0,2.462375 z"
     id="path3064"
     style="font-size:40px;font-style:normal;font-weight:normal;text-align:center;line-height:125%;letter-spacing:0px;word-spacing:0px;text-anchor:middle;fill:#ff6600;fill-opacity:1;stroke:none;filter:url(#filter3092);font-family:Sans" />
  <path
     d="m 13.875296,33.92887 c -0.0075,-0.284828 -0.01182,-0.498446 -0.01182,-0.640868 -8e-6,-0.838668 0.118674,-1.562603 0.356032,-2.171831 0.174062,-0.458891 0.454932,-0.921734 0.842625,-1.388552 0.284822,-0.3402 0.797124,-0.836679 1.536898,-1.48942 0.73976,-0.652725 1.220411,-1.172936 1.441954,-1.560634 0.221525,-0.387678 0.332292,-0.810961 0.332304,-1.269869 -1.2e-5,-0.830741 -0.324404,-1.560613 -0.973173,-2.189628 -0.648791,-0.628989 -1.443941,-0.94349 -2.385461,-0.943506 -0.909871,1.6e-5 -1.669421,0.284846 -2.278634,0.854494 -0.609227,0.569675 -1.008774,1.459767 -1.198661,2.670281 L 9.3417876,25.538244 c 0.197795,-1.621936 0.7852594,-2.864107 1.7623874,-3.726529 0.977118,-0.862381 2.268744,-1.293581 3.874872,-1.293598 1.701062,1.7e-5 3.057965,0.462864 4.070704,1.388541 1.012718,0.925714 1.519072,2.045256 1.51909,3.358626 -1.8e-5,0.759557 -0.178033,1.459766 -0.534053,2.100622 -0.356055,0.640875 -1.052299,1.4202 -2.088757,2.337977 -0.696263,0.617146 -1.151198,1.072077 -1.36481,1.364808 -0.213628,0.292753 -0.371873,0.629009 -0.47472,1.008779 -0.102863,0.379779 -0.162203,0.99691 -0.178017,1.8514 z m -0.130545,4.284314 0,-2.432925 2.432915,0 0,2.432925 z"
     id="path3066"
     style="font-size:40px;font-style:normal;font-weight:normal;text-align:center;line-height:125%;letter-spacing:0px;word-spacing:0px;text-anchor:middle;fill:#ff0000;fill-opacity:1;stroke:none;filter:url(#filter3108);font-family:Sans" />
  <path
     d="m 23.565384,30.316205 c -0.01054,-0.378357 -0.01579,-0.662126 -0.01578,-0.851316 -9e-6,-1.114058 0.15764,-2.075724 0.472949,-2.885007 0.231209,-0.609575 0.604321,-1.224416 1.119321,-1.844516 0.378351,-0.45192 1.05888,-1.111426 2.041575,-1.97852 0.982678,-0.867063 1.621169,-1.558098 1.915462,-2.073106 0.294268,-0.514977 0.441405,-1.077265 0.441418,-1.686867 -1.8e-5,-1.103536 -0.430926,-2.073086 -1.29274,-2.908657 -0.861831,-0.835527 -1.918093,-1.253301 -3.168781,-1.253322 -1.208659,2.1e-5 -2.21763,0.378383 -3.026894,1.135086 -0.809279,0.756743 -1.340038,1.939122 -1.592271,3.54714 l -2.916538,-0.346828 c 0.262755,-2.15454 1.043122,-3.80462 2.341119,-4.950238 1.297983,-1.145574 3.013752,-1.718371 5.147298,-1.718394 2.259651,2.3e-5 4.062125,0.61486 5.407427,1.844515 1.345272,1.229698 2.017916,2.716868 2.017933,4.46152 -1.7e-5,1.008978 -0.236492,1.939121 -0.709431,2.790421 -0.472964,0.851329 -1.397852,1.886565 -2.774656,3.105719 -0.924895,0.819794 -1.529223,1.424124 -1.81298,1.812988 -0.283788,0.388877 -0.493988,0.835555 -0.630608,1.340027 -0.136642,0.504499 -0.215466,1.324275 -0.236477,2.459355 z m -0.173421,5.691199 0,-3.231846 3.231843,0 0,3.231846 z"
     id="path3062"
     style="font-size:40px;font-style:normal;font-weight:normal;text-align:center;line-height:125%;letter-spacing:0px;word-spacing:0px;text-anchor:middle;fill:#000000;fill-opacity:1;stroke:none;font-family:Sans" />
</svg>
