<?xml version="1.0" encoding="UTF-8" standalone="no"?>
<!-- Created with Inkscape (http://www.inkscape.org/) -->

<svg
   xmlns:dc="http://purl.org/dc/elements/1.1/"
   xmlns:cc="http://creativecommons.org/ns#"
   xmlns:rdf="http://www.w3.org/1999/02/22-rdf-syntax-ns#"
   xmlns:svg="http://www.w3.org/2000/svg"
   xmlns="http://www.w3.org/2000/svg"
   xmlns:xlink="http://www.w3.org/1999/xlink"
   version="1.1"
   width="50"
   height="50"
   id="svg3030">
  <defs
     id="defs3032">
    <linearGradient
       id="linearGradient3045">
      <stop
         id="stop3047"
         style="stop-color:#4d4d4d;stop-opacity:1"
         offset="0" />
      <stop
         id="stop3049"
         style="stop-color:#00aad4;stop-opacity:1"
         offset="1" />
    </linearGradient>
    <filter
       color-interpolation-filters="sRGB"
       id="filter3755">
      <feGaussianBlur
         stdDeviation="0.64"
         id="feGaussianBlur3757" />
    </filter>
    <linearGradient
       x1="16.004606"
       y1="35.544228"
       x2="3.7860355"
       y2="18.16288"
       id="linearGradient3051"
       xlink:href="#linearGradient3045"
       gradientUnits="userSpaceOnUse"
       gradientTransform="translate(1.8198786,-0.36397569)" />
  </defs>
  <metadata
     id="metadata3035">
    <rdf:RDF>
      <cc:Work
         rdf:about="">
        <dc:format>image/svg+xml</dc:format>
        <dc:type
           rdf:resource="http://purl.org/dc/dcmitype/StillImage" />
        <dc:title></dc:title>
      </cc:Work>
    </rdf:RDF>
  </metadata>
  <path
     d="m 6,6.0000011 0,12.6666549 12.666662,0 0,-12.6666549 z m 12.666662,12.6666549 0,6.333343 -6.333324,0 0,19 6.333324,0 0,-6.333343 12.666678,0 0,6.333343 6.33332,0 0,-19 -6.33332,0 0,-6.333343 z m 12.666678,0 12.66666,0 0,-12.6666549 -12.66666,0 z"
     id="rect3031"
     style="fill:#69ff75;fill-opacity:1;stroke:none" />
  <path
     d="M 3.02688,46.991114 C 3.012032,46.976228 3,27.353247 3,27.353247 l 19.162876,-0.02108 0.904858,-0.780176 c 1.839974,-1.586448 3.519269,-2.875929 4.781208,-3.67137 l 0.498214,-0.31404 3.309862,0 c 2.061811,0 3.318835,0.01455 3.333645,0.03845 0.02649,0.04284 0.04787,0.02864 -0.702695,0.466694 -3.101823,1.810316 -6.169458,4.069106 -8.947748,6.588469 -0.702016,0.636594 -2.328986,2.213853 -2.504243,2.42773 l -0.150298,0.183402 -0.0402,14.726421 c 0,0 -19.6037845,0.0082 -19.6185813,-0.0067 z M 20.596412,34.782156 c -0.07488,-0.01968 -3.314828,3.811951 -4.990398,5.901825 -1.064256,1.327406 -1.639373,2.06858 -2.428032,3.129085 -0.358758,0.482426 -0.670963,0.870913 -0.693786,0.863307 -0.05747,-0.01916 -7.1189741,-11.491379 -7.1422573,-11.603395 l -0.018816,-0.09048 2.5306108,0 c 1.9647488,0 2.5443975,0.01126 2.5923205,0.05027 0.03392,0.02766 0.259097,0.400828 0.500325,0.829292 1.041883,1.850474 1.849421,3.239114 1.891187,3.25199 0.02484,0.0076 0.268186,-0.253768 0.540954,-0.580899 2.059622,-2.470098 3.797849,-4.406455 5.54204,-6.173743 0.618073,-0.626262 0.922355,-0.961475 0.885492,-0.975501 -0.03085,-0.01178 -14.775166,-7.3e-4 -14.775166,-7.3e-4 0,0 -0.01152,15.529904 0.03392,15.563555 0.036096,0.02664 15.569892,0 15.569892,0 0,0 -0.01433,-10.158282 -0.03827,-10.164573 z"
     id="path3390"
     style="fill:#4d4d4d;fill-opacity:1" />
</svg>
