<?xml version="1.0" encoding="UTF-8" standalone="no"?>
<!-- Created with Inkscape (http://www.inkscape.org/) -->

<svg
   xmlns:dc="http://purl.org/dc/elements/1.1/"
   xmlns:cc="http://creativecommons.org/ns#"
   xmlns:rdf="http://www.w3.org/1999/02/22-rdf-syntax-ns#"
   xmlns:svg="http://www.w3.org/2000/svg"
   xmlns="http://www.w3.org/2000/svg"
   xmlns:xlink="http://www.w3.org/1999/xlink"
   xmlns:sodipodi="http://sodipodi.sourceforge.net/DTD/sodipodi-0.dtd"
   xmlns:inkscape="http://www.inkscape.org/namespaces/inkscape"
   width="50"
   height="50"
   id="svg3030"
   version="1.1"
   inkscape:version="0.48.2 r9819"
   sodipodi:docname="icon.svg"
   inkscape:export-filename="C:\Users\zdoll\projects\Translate-This\TranslateThis\icon.png"
   inkscape:export-xdpi="90"
   inkscape:export-ydpi="90">
  <defs
     id="defs3032">
    <linearGradient
       inkscape:collect="always"
       id="linearGradient3893">
      <stop
         style="stop-color:#999999;stop-opacity:1;"
         offset="0"
         id="stop3895" />
      <stop
         style="stop-color:#ffffff;stop-opacity:1"
         offset="1"
         id="stop3897" />
    </linearGradient>
    <inkscape:path-effect
       effect="skeletal"
       id="path-effect3033"
       is_visible="true"
       pattern="M 0,5 C 0,2.24 2.24,0 5,0 7.76,0 10,2.24 10,5 10,7.76 7.76,10 5,10 2.24,10 0,7.76 0,5 z"
       copytype="single_stretched"
       prop_scale="1"
       scale_y_rel="false"
       spacing="0"
       normal_offset="0"
       tang_offset="0"
       prop_units="false"
       vertical_pattern="false"
       fuse_tolerance="0" />
    <linearGradient
       inkscape:collect="always"
       xlink:href="#linearGradient3893"
       id="linearGradient3899"
       x1="150.3186"
       y1="351.60361"
       x2="150.3186"
       y2="305.78906"
       gradientUnits="userSpaceOnUse"
       gradientTransform="translate(-0.99999444,-1.0000076)" />
    <filter
       inkscape:collect="always"
       id="filter3951"
       x="-0.055775504"
       width="1.111551"
       y="-0.34431518"
       height="1.6886304">
      <feGaussianBlur
         inkscape:collect="always"
         stdDeviation="1.0363844"
         id="feGaussianBlur3953" />
    </filter>
    <filter
       inkscape:collect="always"
       id="filter3969">
      <feGaussianBlur
         inkscape:collect="always"
         stdDeviation="0.4287355"
         id="feGaussianBlur3971" />
    </filter>
  </defs>
  <sodipodi:namedview
     id="base"
     pagecolor="#ffffff"
     bordercolor="#666666"
     borderopacity="1.0"
     inkscape:pageopacity="0.0"
     inkscape:pageshadow="2"
     inkscape:zoom="7.8580482"
     inkscape:cx="41.345261"
     inkscape:cy="28.456729"
     inkscape:document-units="px"
     inkscape:current-layer="layer1"
     showgrid="false"
     fit-margin-top="0"
     fit-margin-left="-0.2"
     fit-margin-right="0"
     fit-margin-bottom="0"
     inkscape:showpageshadow="false"
     inkscape:window-width="1598"
     inkscape:window-height="1042"
     inkscape:window-x="2028"
     inkscape:window-y="35"
     inkscape:window-maximized="0" />
  <metadata
     id="metadata3035">
    <rdf:RDF>
      <cc:Work
         rdf:about="">
        <dc:format>image/svg+xml</dc:format>
        <dc:type
           rdf:resource="http://purl.org/dc/dcmitype/StillImage" />
        <dc:title />
      </cc:Work>
    </rdf:RDF>
  </metadata>
  <g
     inkscape:label="Layer 1"
     inkscape:groupmode="layer"
     id="layer1"
     transform="translate(-130.85715,-302.93359)">
    <rect
       y="302.93359"
       x="130.85715"
       height="50"
       width="50"
       id="rect3106"
       style="fill:url(#linearGradient3899);fill-opacity:1;stroke:none" />
    <path
       style="font-size:medium;font-style:normal;font-variant:normal;font-weight:normal;font-stretch:normal;text-indent:0;text-align:start;text-decoration:none;line-height:normal;letter-spacing:normal;word-spacing:normal;text-transform:none;direction:ltr;block-progression:tb;writing-mode:lr-tb;text-anchor:start;baseline-shift:baseline;color:#000000;fill:#000080;fill-opacity:1;stroke:none;stroke-width:1;marker:none;visibility:visible;display:inline;overflow:visible;enable-background:accumulate;font-family:Sans;-inkscape-font-specification:Sans;filter:url(#filter3969);opacity:0.26358696"
       d="m 155.87163,306.74656 c -11.84043,0 -21.45125,9.61082 -21.45125,21.45125 0,11.84043 9.61082,21.4223 21.45125,21.4223 11.84043,0 21.4223,-9.58187 21.4223,-21.4223 0,-11.84043 -9.58187,-21.45125 -21.4223,-21.45125 z m -0.2316,0.92638 0,3.32914 c -0.67551,0.005 -1.33778,0.0325 -1.99748,0.0868 0.24165,-0.84132 0.51301,-1.57416 0.78163,-2.14223 0.24482,-0.51778 0.50406,-0.93255 0.75267,-1.18691 0.0299,-0.0305 0.0577,-0.0316 0.0868,-0.0579 0.1273,-0.004 0.24846,-0.0275 0.37634,-0.0289 z m 0.46319,0 c 0.11807,0.002 0.22981,0.0256 0.34739,0.0289 0.0291,0.0262 0.0571,0.0274 0.0868,0.0579 0.24861,0.25436 0.53678,0.66913 0.78162,1.18691 0.26862,0.56808 0.51852,1.30091 0.75267,2.14223 -0.64173,-0.0528 -1.31179,-0.0806 -1.96853,-0.0868 l 0,-3.32914 z m 0.95532,0.0289 c 0.63988,0.25326 1.25524,0.72881 1.85273,1.36061 0.58385,0.61736 1.1397,1.43346 1.6501,2.37382 -0.66605,-0.11994 -1.33901,-0.22062 -2.02643,-0.28949 -0.25902,-0.94015 -0.56617,-1.76347 -0.86847,-2.40278 -0.20089,-0.42482 -0.38342,-0.76397 -0.60793,-1.04216 z m -2.40277,0.029 c -0.21929,0.27533 -0.44016,0.5972 -0.63689,1.01321 -0.30229,0.63931 -0.5805,1.46263 -0.83951,2.40278 -0.68743,0.0689 -1.36039,0.16955 -2.02643,0.28948 0.51837,-0.94035 1.06625,-1.75646 1.65009,-2.37382 0.59358,-0.62767 1.22528,-1.07746 1.85274,-1.33165 z m -1.8238,0.46317 c -0.15998,0.14211 -0.30914,0.30032 -0.46318,0.46319 -0.72043,0.7618 -1.37249,1.75339 -1.96854,2.92386 -0.747,0.15761 -1.4869,0.33111 -2.20012,0.55003 1.35265,-1.83764 2.91952,-3.20265 4.63184,-3.93708 z m 6.02141,0 c 1.71233,0.73443 3.30814,2.09944 4.6608,3.93708 -0.71323,-0.21892 -1.45312,-0.39242 -2.20013,-0.55003 -0.59643,-1.17174 -1.24751,-2.16144 -1.96854,-2.92386 -0.15898,-0.16811 -0.32681,-0.31722 -0.49213,-0.46319 z m -8.39523,0.57898 c -1.26132,0.94749 -2.39052,2.21302 -3.38703,3.73444 -1.01435,0.36621 -1.97122,0.79016 -2.8949,1.27375 1.74463,-2.22746 3.88901,-3.95711 6.28193,-5.00819 z m 10.798,0 c 2.39349,1.05132 4.53708,2.77996 6.28194,5.00819 -0.91285,-0.47791 -1.86448,-0.88146 -2.86595,-1.2448 -1.00081,-1.53049 -2.14334,-2.81167 -3.41599,-3.76339 z m 2.89491,0.66584 c 4.63755,2.05162 8.35515,5.76084 10.42166,10.39271 -1.35037,-1.95213 -3.14781,-3.67825 -5.29769,-5.06609 -1.40314,-2.16482 -3.14803,-3.97567 -5.12397,-5.32662 z m -16.64571,0.0289 c -1.95513,1.34735 -3.67483,3.15123 -5.06608,5.29769 -2.14178,1.38262 -3.94895,3.09412 -5.29768,5.03713 2.06146,-4.59247 5.76813,-8.27916 10.36376,-10.33482 z m 8.13468,2.34488 0,3.44493 c -0.99126,0.006 -1.94009,0.0607 -2.8949,0.14476 0.10834,-0.7021 0.22202,-1.37064 0.34739,-1.99749 0.10146,-0.50734 0.20628,-0.99528 0.31843,-1.44746 0.74065,-0.0701 1.46582,-0.13877 2.22908,-0.14474 z m 0.46319,0 c 0.74427,0.008 1.47745,0.0763 2.20013,0.14474 0.10923,0.45218 0.21697,0.94012 0.31843,1.44746 0.12537,0.62685 0.23779,1.29539 0.3474,1.99749 -0.93696,-0.0824 -1.89382,-0.13773 -2.86596,-0.14476 l 0,-3.44493 z m -3.1265,0.17369 c -0.10228,0.42391 -0.19599,0.86418 -0.28948,1.33166 -0.1329,0.66449 -0.26307,1.36724 -0.37635,2.11328 -0.99869,0.10053 -1.97698,0.22419 -2.92384,0.40528 0.24788,-0.84197 0.51605,-1.63754 0.81056,-2.37381 0.15411,-0.38528 0.29668,-0.74774 0.46319,-1.10007 0.75131,-0.15531 1.53319,-0.28883 2.31592,-0.37634 z m 5.76086,0 c 0.78777,0.0881 1.56,0.2196 2.31593,0.37634 0.16465,0.35233 0.30907,0.71479 0.46318,1.10007 0.29452,0.73627 0.56269,1.53184 0.81058,2.37381 -0.94687,-0.18109 -1.92517,-0.30475 -2.92386,-0.40528 -0.11465,-0.74604 -0.24344,-1.44879 -0.37634,-2.11328 -0.0935,-0.46748 -0.18721,-0.90775 -0.28949,-1.33166 z m -8.77155,0.52109 c -0.1074,0.2421 -0.21643,0.46869 -0.31845,0.72372 -0.33985,0.84964 -0.6501,1.77064 -0.92637,2.75016 -1.05019,0.22432 -2.07189,0.49357 -3.03965,0.81058 0.46512,-1.17222 1.00046,-2.28501 1.59221,-3.27124 0.056,-0.0932 0.11676,-0.16921 0.17368,-0.26055 0.81695,-0.29125 1.64863,-0.54695 2.51858,-0.75267 z m 11.78226,0 c 0.86153,0.20464 1.70908,0.46408 2.51857,0.75267 0.057,0.0913 0.11776,0.16732 0.17368,0.26055 0.59154,0.98587 1.09825,2.09949 1.56326,3.27124 -0.95984,-0.31336 -1.96998,-0.58829 -3.0107,-0.81058 -0.27837,-0.97952 -0.58652,-1.90052 -0.92638,-2.75016 -0.10201,-0.25503 -0.21105,-0.48162 -0.31843,-0.72372 z m -15.37195,1.15796 c -0.59154,1.05233 -1.10811,2.21397 -1.56325,3.44494 -1.25677,0.4598 -2.43195,0.98795 -3.50284,1.5922 0.48648,-1.17135 1.05815,-2.27581 1.708,-3.30019 1.04205,-0.66306 2.16357,-1.24293 3.35809,-1.73695 z m 19.01952,0.029 c 1.15663,0.48215 2.2292,1.06676 3.24229,1.70798 0.65385,1.02868 1.27701,2.12304 1.7659,3.3002 -1.06367,-0.60018 -2.22672,-1.13445 -3.47389,-1.5922 -0.4475,-1.21928 -0.95045,-2.37172 -1.5343,-3.41598 z m -9.75583,2.25802 0,3.56073 c -1.16272,0.004 -2.27649,0.0387 -3.38704,0.1158 0.10951,-1.22887 0.22321,-2.41456 0.37634,-3.50284 0.98742,-0.0919 1.98106,-0.16775 3.0107,-0.17369 z m 0.46319,0 c 1.01076,0.008 2.01044,0.0834 2.98176,0.17369 0.15551,1.08828 0.2634,2.27397 0.37633,3.50284 -1.09292,-0.0759 -2.21453,-0.11022 -3.35809,-0.1158 l 0,-3.56073 z m -3.90812,0.20264 c -0.15065,1.0881 -0.26935,2.27938 -0.37634,3.50284 -1.17754,0.092 -2.31646,0.23805 -3.416,0.40528 0.203,-1.20361 0.46729,-2.34259 0.75268,-3.41599 0.98163,-0.19977 1.9965,-0.3815 3.03966,-0.49213 z m 7.3241,0 c 1.04222,0.11034 2.05789,0.29311 3.03966,0.49213 0.28534,1.07327 0.52075,2.21254 0.72372,3.41599 -1.08194,-0.16384 -2.2007,-0.31419 -3.35809,-0.40528 -0.11039,-1.22359 -0.2522,-2.41463 -0.40529,-3.50284 z m -18.0642,0.34739 c -0.48934,0.93072 -0.93312,1.90071 -1.3027,2.92386 -1.52031,1.00191 -2.78778,2.14902 -3.73444,3.41598 1.05085,-2.41954 2.7826,-4.58176 5.03714,-6.33984 z m 28.80431,0 c 2.24827,1.75321 3.98535,3.89946 5.03714,6.3109 -0.95228,-1.2694 -2.23517,-2.41355 -3.76339,-3.416 -0.3673,-1.01326 -0.78888,-1.9725 -1.27375,-2.8949 z m -21.74075,0.28949 c -0.27152,1.06437 -0.53198,2.17687 -0.72372,3.35809 -1.17905,0.19618 -2.29614,0.44857 -3.35809,0.72373 0.25363,-1.11656 0.56691,-2.17099 0.92638,-3.18439 0.99893,-0.35166 2.05615,-0.64883 3.15543,-0.89743 z m 14.70612,0 c 1.09509,0.24739 2.13084,0.51931 3.1265,0.86847 0.36284,1.02004 0.67089,2.08858 0.92637,3.21335 -1.06194,-0.27516 -2.17903,-0.52755 -3.35809,-0.72373 -0.19464,-1.17932 -0.4212,-2.29524 -0.69478,-3.35809 z m -18.75898,1.21586 c -0.32401,0.98118 -0.58176,2.00281 -0.81057,3.0686 -0.97112,0.27674 -1.90703,0.56017 -2.75016,0.89742 -0.26736,0.10695 -0.49953,0.23544 -0.75267,0.34739 0.20563,-0.8711 0.46096,-1.70074 0.75267,-2.51857 0.11144,-0.07 0.20423,-0.16306 0.31843,-0.23159 0.98623,-0.59174 2.07009,-1.10098 3.2423,-1.56325 z m 22.7829,0 c 1.17506,0.46227 2.28502,0.97151 3.27125,1.56325 0.10254,0.0615 0.18921,0.13992 0.28949,0.20264 0.29563,0.82577 0.54489,1.66732 0.75267,2.54752 -0.25314,-0.11195 -0.48532,-0.24044 -0.75267,-0.34739 -0.84313,-0.33725 -1.77905,-0.62068 -2.75016,-0.89742 -0.22598,-1.06503 -0.48939,-2.08809 -0.81058,-3.0686 z m -11.60857,2.08434 0,3.67652 c -1.25989,0.003 -2.47817,0.0412 -3.67652,0.0868 0.0524,-1.26898 0.13579,-2.47575 0.23159,-3.64758 1.12367,-0.0794 2.26598,-0.11123 3.44493,-0.11579 z m 0.46319,0 c 1.15972,0.006 2.30993,0.0377 3.41598,0.11579 0.099,1.17191 0.20575,2.37852 0.26055,3.64758 -1.1896,-0.0456 -2.426,-0.0837 -3.67653,-0.0868 l 0,-3.67653 z m -4.45816,0.14474 c 0.047,-0.004 0.0976,0.004 0.14475,0 -0.0932,1.16158 -0.18062,2.36363 -0.23159,3.61863 -1.2575,0.0531 -2.45354,0.13558 -3.61863,0.2316 0.0944,-1.19187 0.20481,-2.33686 0.37633,-3.44495 1.073,-0.16611 2.17729,-0.31134 3.32914,-0.40528 z m 8.30838,0 c 1.18174,0.0936 2.31657,0.23581 3.41599,0.40528 0.17162,1.10844 0.31083,2.25265 0.40529,3.44495 -1.15582,-0.0952 -2.34285,-0.17866 -3.58969,-0.2316 -0.0533,-1.255 -0.13519,-2.45705 -0.23159,-3.61863 z m 11.95596,0.26054 c 1.88471,1.38028 3.23597,2.99238 3.96603,4.74764 -0.15944,-0.18454 -0.30525,-0.37328 -0.49214,-0.55002 -0.75479,-0.71381 -1.73863,-1.35594 -2.89491,-1.93959 -0.16134,-0.7664 -0.35291,-1.52735 -0.57898,-2.25803 z m -32.13344,0.0579 c -0.21883,0.71317 -0.39277,1.45308 -0.55004,2.20013 -1.15628,0.58365 -2.14011,1.22578 -2.8949,1.93959 -0.16288,0.15403 -0.32109,0.30319 -0.46319,0.46318 0.73635,-1.70155 2.08456,-3.25594 3.90813,-4.6029 z m 7.93203,0.17369 c -0.16343,1.09882 -0.28719,2.23952 -0.37633,3.416 -1.22698,0.11039 -2.41222,0.25221 -3.50284,0.40528 0.11224,-1.04965 0.25996,-2.08112 0.46319,-3.0686 1.07254,-0.28613 2.21293,-0.54893 3.41598,-0.75268 z m 16.29832,0 c 1.20306,0.20375 2.34345,0.46655 3.41599,0.75268 0.20322,0.98748 0.35095,2.01895 0.46318,3.0686 -1.08178,-0.15183 -2.25783,-0.29543 -3.47388,-0.40528 -0.0913,-1.17704 -0.23882,-2.31671 -0.40529,-3.416 z m -20.49593,0.98427 c -0.18353,0.9516 -0.33278,1.94905 -0.43423,2.9528 -0.73707,0.11346 -1.45715,0.21617 -2.11328,0.3474 -0.45795,0.0916 -0.88897,0.22083 -1.30271,0.31843 0.0866,-0.7874 0.19192,-1.56038 0.34738,-2.31592 0.36441,-0.1722 0.73144,-0.3331 1.12902,-0.49213 0.73291,-0.29317 1.53616,-0.5636 2.37382,-0.81058 z m 24.69355,0 c 0.83766,0.24698 1.6409,0.51741 2.37381,0.81058 0.39758,0.15903 0.76461,0.31993 1.12902,0.49213 0.15547,0.75554 0.26076,1.52852 0.34739,2.31592 -0.41374,-0.0976 -0.84476,-0.22685 -1.30271,-0.31843 -0.65614,-0.13123 -1.37621,-0.23394 -2.11329,-0.3474 -0.0999,-1.00393 -0.25299,-2.00104 -0.43422,-2.9528 z m -29.12275,1.7659 c -0.12193,0.67461 -0.2202,1.35868 -0.28949,2.05538 -0.92484,0.24986 -1.70951,0.51013 -2.34488,0.81057 -0.42483,0.20088 -0.76398,0.41237 -1.04217,0.63688 0.24598,-0.62833 0.67422,-1.25837 1.30271,-1.85274 0.61539,-0.58198 1.42947,-1.1331 2.37383,-1.65009 z m 33.55195,0 c 0.93856,0.51497 1.76131,1.07083 2.37382,1.65009 0.62849,0.59437 1.05674,1.22441 1.30271,1.85274 -0.28295,-0.21929 -0.62616,-0.44016 -1.04216,-0.63688 -0.63538,-0.30044 -1.42004,-0.56071 -2.34488,-0.81057 -0.0693,-0.6967 -0.16757,-1.38077 -0.28949,-2.05538 z m -16.9931,0.72372 0,3.76338 -3.76337,0 c 0.003,-1.25489 0.0427,-2.48524 0.0868,-3.67653 1.20111,-0.0446 2.41286,-0.0845 3.67653,-0.0868 z m 0.46319,0 c 1.2542,0.003 2.48424,0.0422 3.67653,0.0868 0.0462,1.19129 0.0844,2.42164 0.0868,3.67653 l -3.76338,0 0,-3.76338 z m -4.545,0.0868 c -0.0435,1.19623 -0.0845,2.41677 -0.0868,3.67653 l -3.70548,0 c 0.004,-1.17746 0.0657,-2.32258 0.14474,-3.44494 1.16725,-0.0947 2.38547,-0.17963 3.64759,-0.23159 z m 8.62681,0 c 1.25149,0.0519 2.46062,0.13756 3.61864,0.23159 0.0791,1.12236 0.14025,2.26748 0.14474,3.44494 l -3.67652,0 c -0.003,-1.25976 -0.0412,-2.4803 -0.0868,-3.67653 z m -12.88232,0.26054 c -0.0756,1.11288 -0.11144,2.25068 -0.1158,3.41599 l -3.56073,0 c 0.006,-1.03001 0.0802,-2.02294 0.17369,-3.0107 1.09004,-0.15295 2.27142,-0.29592 3.50284,-0.40529 z m 17.13783,0.0289 c 1.21928,0.10881 2.3936,0.22476 3.47389,0.37633 0.0935,0.98777 0.16764,1.9807 0.1737,3.01071 l -3.53179,0 c -0.004,-1.1554 -0.0396,-2.28312 -0.1158,-3.38704 z m -21.39334,0.46318 c -0.0863,0.95953 -0.13905,1.9275 -0.14475,2.92386 l -3.41598,0 c 0.006,-0.75333 0.0472,-1.49799 0.11579,-2.22909 0.45217,-0.11214 0.94011,-0.21696 1.44745,-0.31842 0.62452,-0.12492 1.29699,-0.26835 1.99749,-0.37635 z m 25.6199,0 c 0.7005,0.108 1.37297,0.25143 1.9975,0.37635 0.51707,0.1034 0.98772,0.20394 1.44745,0.31842 0.0686,0.7311 0.10995,1.47576 0.11579,2.22909 l -3.41598,0 c -0.006,-0.99636 -0.06,-1.96433 -0.14476,-2.92386 z m -29.93332,0.92638 c -0.0545,0.65951 -0.0818,1.32198 -0.0868,1.99748 l -3.30019,0 c 0.002,-0.13767 0.0247,-0.26828 0.0289,-0.40529 0.0252,-0.0278 0.0289,-0.0585 0.0579,-0.0868 0.25436,-0.24861 0.64018,-0.47889 1.15797,-0.72372 0.56807,-0.26862 1.30091,-0.53997 2.14222,-0.78162 z m 34.24674,0 c 0.83917,0.24125 1.57528,0.51353 2.14223,0.78162 0.51779,0.24483 0.9036,0.47511 1.15796,0.72372 0.0289,0.0283 0.0327,0.0592 0.0579,0.0868 0.004,0.13702 0.0274,0.26762 0.0289,0.40529 l -3.30019,0 c -0.005,-0.6755 -0.0324,-1.33797 -0.0868,-1.99748 z m -37.63377,2.46066 3.30019,0 c 0.007,0.66521 0.0325,1.31875 0.0868,1.96854 -0.84189,-0.23426 -1.57385,-0.48392 -2.14223,-0.75268 -0.51778,-0.24483 -0.9036,-0.50406 -1.15796,-0.75267 -0.0356,-0.0347 -0.0281,-0.081 -0.0579,-0.1158 -0.003,-0.11758 -0.0277,-0.22931 -0.0289,-0.34739 z m 4.13972,0 3.41598,0 c 0.008,0.97175 0.061,1.92936 0.14475,2.86596 -0.7005,-0.10927 -1.37297,-0.22248 -1.99749,-0.3474 -0.50749,-0.10148 -0.99516,-0.23812 -1.44745,-0.34737 -0.0668,-0.71244 -0.10849,-1.43781 -0.11579,-2.17119 z m 4.13971,0 3.56073,0 c 0.006,1.14396 0.0706,2.26314 0.14475,3.3581 -1.24133,-0.1133 -2.4338,-0.24883 -3.53179,-0.40529 -0.0902,-0.96249 -0.16622,-1.95168 -0.17369,-2.95281 z m 4.13971,0 3.70548,0 c 0.003,1.24069 0.0439,2.46679 0.0868,3.64758 -1.26212,-0.0544 -2.48034,-0.13361 -3.64758,-0.23159 -0.0781,-1.10811 -0.13905,-2.25591 -0.14475,-3.41599 z m 4.11077,0 3.76337,0 0,3.76338 c -1.26372,-0.003 -2.47535,-0.0691 -3.67652,-0.1158 -0.044,-1.18346 -0.0838,-2.40323 -0.0868,-3.64758 z m 4.22656,0 3.76338,0 c -0.003,1.24435 -0.0408,2.46412 -0.0868,3.64758 -1.19235,0.0468 -2.42226,0.11255 -3.67653,0.1158 l 0,-3.76338 z m 4.16867,0 3.67652,0 c -0.006,1.16008 -0.0666,2.30788 -0.14474,3.41599 -1.15802,0.0972 -2.36715,0.17727 -3.61864,0.23159 0.045,-1.18079 0.0837,-2.40689 0.0868,-3.64758 z m 4.28445,0 3.53179,0 c -0.008,1.00113 -0.0836,1.99032 -0.1737,2.95281 -1.08038,0.15394 -2.25449,0.29308 -3.47389,0.40529 0.0759,-1.09433 0.11022,-2.21483 0.1158,-3.3581 z m 4.25552,0 3.41598,0 c -0.008,0.73338 -0.049,1.45875 -0.11579,2.17119 -0.45993,0.11153 -0.93014,0.24392 -1.44745,0.34737 -0.62453,0.12492 -1.297,0.23813 -1.9975,0.3474 0.0824,-0.9366 0.13774,-1.89421 0.14476,-2.86596 z m 4.2555,0 3.30019,0 c -0.002,0.11808 -0.0257,0.22981 -0.0289,0.34739 -0.0299,0.0347 -0.0222,0.081 -0.0579,0.1158 -0.25436,0.24861 -0.64017,0.50784 -1.15797,0.75267 -0.56722,0.26822 -1.30252,0.51882 -2.14222,0.75268 0.0543,-0.64979 0.0803,-1.30333 0.0868,-1.96854 z m -37.69166,0.92637 c 0.28225,0.23245 0.63295,0.42969 1.07111,0.63688 0.63485,0.30019 1.42104,0.58199 2.34488,0.83953 0.0693,0.69123 0.16838,1.38573 0.28949,2.05537 -0.94436,-0.50903 -1.75844,-1.06811 -2.37383,-1.65009 -0.63951,-0.60479 -1.08831,-1.2336 -1.33165,-1.88169 z m 40.9629,0 c -5.1e-4,0.01 5.5e-4,0.0196 0,0.029 -0.24528,0.63946 -0.70025,1.25562 -1.33165,1.85274 -0.61251,0.57926 -1.43526,1.14306 -2.37382,1.65009 0.1211,-0.66965 0.22018,-1.36414 0.28949,-2.05538 0.92384,-0.25754 1.71003,-0.53934 2.34488,-0.83952 0.42887,-0.2028 0.78439,-0.40997 1.0711,-0.63688 z m -36.67844,1.708 c 0.41361,0.1 0.84494,0.19793 1.30271,0.28948 0.66394,0.1328 1.39548,0.23282 2.14222,0.3474 0.1024,1.00915 0.21995,1.99647 0.40529,2.95279 -0.839,-0.24896 -1.63987,-0.51698 -2.37382,-0.81056 -0.39758,-0.15904 -0.76461,-0.32189 -1.12902,-0.49214 -0.15442,-0.74661 -0.2601,-1.50937 -0.34738,-2.28697 z m 32.39399,0 c -0.0873,0.7776 -0.19296,1.54036 -0.34739,2.28697 -0.36441,0.17025 -0.73144,0.3331 -1.12902,0.49214 -0.73395,0.29358 -1.53481,0.5616 -2.37381,0.81056 0.18303,-0.95653 0.30449,-1.94342 0.40528,-2.95279 0.74675,-0.11458 1.47829,-0.2146 2.14223,-0.3474 0.45776,-0.0915 0.88911,-0.18949 1.30271,-0.28948 z m -36.18632,0.1158 c 0.14448,0.16324 0.29711,0.30611 0.46319,0.46317 0.75479,0.71381 1.73862,1.37673 2.8949,1.96854 0.16306,0.7727 0.35022,1.52149 0.57898,2.25803 -1.84118,-1.3562 -3.19607,-2.97084 -3.93707,-4.68974 z m 39.97865,0 c -0.74131,1.735 -2.10195,3.35415 -3.96603,4.71869 0.23257,-0.7456 0.44275,-1.50424 0.60793,-2.28698 1.15628,-0.59181 2.14012,-1.25473 2.89491,-1.96854 0.16913,-0.15993 0.31648,-0.29682 0.46319,-0.46317 z m -32.01766,0.66582 c 1.09025,0.153 2.27634,0.26599 3.50284,0.37634 0.0898,1.17975 0.21205,2.31348 0.37633,3.416 -1.20304,-0.20708 -2.34345,-0.46402 -3.41598,-0.75269 -0.20138,-0.98108 -0.35112,-1.9982 -0.46319,-3.03965 z m 24.05666,0 c -0.11207,1.04145 -0.2618,2.05857 -0.46318,3.03965 -1.07253,0.28867 -2.21294,0.54561 -3.41599,0.75269 0.1673,-1.10296 0.31329,-2.23574 0.40529,-3.416 1.21556,-0.10983 2.39248,-0.22458 3.47388,-0.37634 z m -19.94589,0.43423 c 1.16509,0.096 2.36113,0.1786 3.61863,0.2316 0.051,1.25741 0.13836,2.45388 0.23159,3.61863 -1.20138,-0.0967 -2.35748,-0.22944 -3.47389,-0.40528 -0.17144,-1.1106 -0.28193,-2.25141 -0.37633,-3.44495 z m 15.83513,0 c -0.0945,1.19396 -0.23376,2.33398 -0.40529,3.44495 -1.09902,0.17235 -2.23472,0.30946 -3.41599,0.40528 0.0964,-1.16475 0.17821,-2.36122 0.23159,-3.61863 1.24684,-0.053 2.43387,-0.13634 3.58969,-0.2316 z m -11.81121,0.2316 c 1.19835,0.0456 2.41663,0.0844 3.67652,0.0868 l 0,3.70548 c -1.17898,-0.005 -2.32122,-0.0635 -3.44493,-0.14476 -0.0951,-1.1664 -0.17927,-2.3861 -0.23159,-3.64757 z m 7.81624,0 c -0.0548,1.26156 -0.16223,2.48109 -0.26055,3.64757 -1.10609,0.0801 -2.25621,0.1389 -3.41598,0.14476 l 0,-3.70548 c 1.25053,-0.003 2.48693,-0.0411 3.67653,-0.0868 z m -23.36189,1.04216 c 0.9481,1.26948 2.21513,2.41534 3.73444,3.41599 0.36598,1.00809 0.8205,1.9765 1.3027,2.8949 -2.2423,-1.75265 -3.9845,-3.90448 -5.03714,-6.31089 z m 38.84964,0.029 c -1.05405,2.39348 -2.77586,4.53707 -5.00819,6.28194 0.47622,-0.90721 0.8819,-1.87117 1.24481,-2.86595 1.53031,-1.00035 2.80661,-2.14419 3.76338,-3.41599 z m -35.1152,0.46318 c 0.25314,0.11286 0.48531,0.24045 0.75267,0.34739 0.84368,0.33748 1.77833,0.6495 2.75016,0.92637 0.22659,1.04624 0.49207,2.0753 0.81057,3.03965 -1.17221,-0.46227 -2.25607,-0.9715 -3.2423,-1.56324 -0.11064,-0.0663 -0.21039,-0.13482 -0.31843,-0.20264 -0.29255,-0.81808 -0.54612,-1.67632 -0.75267,-2.54753 z m 31.40971,0 c -0.20872,0.88031 -0.45618,1.75045 -0.75267,2.57647 -0.0968,0.0605 -0.19058,0.11435 -0.28949,0.1737 -0.98623,0.59174 -2.09619,1.10097 -3.27125,1.56324 0.31568,-0.96358 0.58679,-1.99429 0.81058,-3.03965 0.97183,-0.27687 1.90647,-0.58889 2.75016,-0.92637 0.26735,-0.10694 0.49953,-0.23453 0.75267,-0.34739 z m -27.12526,1.4764 c 1.06152,0.27499 2.17958,0.52764 3.35809,0.72373 0.19163,1.17403 0.45357,2.3001 0.72372,3.35809 -1.10064,-0.24877 -2.15536,-0.57431 -3.15543,-0.92637 -0.35653,-1.00783 -0.67392,-2.04574 -0.92638,-3.15545 z m 22.8408,0 c -0.25434,1.11793 -0.56647,2.16993 -0.92637,3.1844 -1.00509,0.35247 -2.04914,0.64871 -3.15544,0.89742 0.27287,-1.0584 0.52883,-2.18355 0.72372,-3.35809 1.17851,-0.19609 2.29658,-0.44874 3.35809,-0.72373 z m -18.87479,0.81057 c 1.09954,0.16724 2.23846,0.28435 3.416,0.37635 0.10699,1.22683 0.22569,2.41233 0.37634,3.50283 -1.04236,-0.11056 -2.05874,-0.2636 -3.03966,-0.46318 -0.28612,-1.0751 -0.54893,-2.20959 -0.75268,-3.416 z m 14.87982,0 c -0.20373,1.20632 -0.43762,2.34097 -0.72372,3.416 -0.98109,0.19883 -1.99821,0.35291 -3.03966,0.46318 0.15309,-1.09062 0.2949,-2.27586 0.40529,-3.50283 1.15739,-0.0911 2.27615,-0.2125 3.35809,-0.37635 z m -26.22783,0.0868 c 1.35021,1.98549 3.18473,3.71328 5.35556,5.12398 1.39735,2.17352 3.1236,3.99395 5.09504,5.35558 -4.65549,-2.07705 -8.40567,-5.80907 -10.4506,-10.47956 z m 37.60481,0 c -2.05194,4.69867 -5.81917,8.43934 -10.5085,10.50851 1.99229,-1.36518 3.74374,-3.19256 5.15293,-5.38453 2.1711,-1.41087 4.00531,-3.13818 5.35557,-5.12398 z m -22.40657,0.31843 c 1.11058,0.0772 2.22428,0.14029 3.38704,0.14475 l 0,3.53179 c -1.03,-0.006 -2.02293,-0.0818 -3.0107,-0.1737 -0.15313,-1.09065 -0.26683,-2.27054 -0.37634,-3.50284 z m 7.20832,0 c -0.11293,1.2323 -0.22082,2.41219 -0.37633,3.50284 -0.97164,0.0904 -1.97066,0.16629 -2.98176,0.1737 l 0,-3.53179 c 1.1436,-0.006 2.26513,-0.0689 3.35809,-0.14475 z m -18.15106,0.92638 c 1.07089,0.60424 2.24607,1.13239 3.50284,1.59219 0.45714,1.23427 0.96895,2.39062 1.56325,3.44494 -1.19452,-0.49549 -2.31604,-1.07218 -3.35809,-1.73694 -0.65101,-1.02732 -1.22081,-2.12571 -1.708,-3.30019 z m 29.0938,0 c -0.49278,1.188 -1.10561,2.29186 -1.7659,3.32914 -1.01672,0.64415 -2.11026,1.19524 -3.27124,1.67904 0.58941,-1.04961 1.112,-2.18862 1.56325,-3.41599 1.24717,-0.45774 2.41022,-0.99202 3.47389,-1.59219 z m -24.72249,1.91063 c 0.96776,0.31701 1.98946,0.58625 3.03965,0.81058 0.27627,0.98162 0.58652,1.90052 0.92637,2.75015 0.10023,0.25058 0.21301,0.48563 0.31845,0.72373 -0.86995,-0.20639 -1.70163,-0.46052 -2.51858,-0.75267 -0.056,-0.09 -0.11862,-0.16875 -0.17368,-0.26054 -0.59175,-0.98624 -1.12709,-2.09619 -1.59221,-3.27125 z m 20.32224,0 c -0.46501,1.17458 -0.97172,2.28537 -1.56326,3.27125 -0.0551,0.0918 -0.11764,0.17056 -0.17368,0.26054 -0.80949,0.28948 -1.65704,0.54736 -2.51857,0.75267 0.10543,-0.2381 0.2182,-0.47315 0.31843,-0.72373 0.33986,-0.84963 0.64801,-1.76853 0.92638,-2.75015 1.04072,-0.2223 2.05086,-0.49723 3.0107,-0.81058 z M 149.38705,340.53 c 0.94686,0.1811 1.92515,0.30476 2.92384,0.40529 0.11328,0.74742 0.24345,1.44879 0.37635,2.11328 0.0912,0.45615 0.16093,0.91695 0.26053,1.33166 -0.77288,-0.0876 -1.54479,-0.22241 -2.28697,-0.37634 -0.16255,-0.34522 -0.3125,-0.69441 -0.46319,-1.07112 -0.29451,-0.73628 -0.56268,-1.55908 -0.81056,-2.40277 z m 12.94022,0 c -0.24789,0.84369 -0.51606,1.66649 -0.81058,2.40277 -0.15068,0.37671 -0.30241,0.7259 -0.46318,1.07112 -0.74681,0.15536 -1.50908,0.28818 -2.28698,0.37634 0.0996,-0.41471 0.16932,-0.87551 0.26054,-1.33166 0.1329,-0.66449 0.26169,-1.36586 0.37634,-2.11328 0.99869,-0.10053 1.97699,-0.22419 2.92386,-0.40529 z m -9.58214,0.43424 c 0.95488,0.0841 1.90358,0.16806 2.8949,0.17369 l 0,3.41599 c -0.76326,-0.006 -1.48843,-0.0743 -2.22908,-0.14474 -0.11215,-0.45218 -0.21697,-0.91117 -0.31843,-1.4185 -0.12537,-0.62685 -0.23905,-1.32308 -0.34739,-2.02644 z m 6.22405,0 c -0.10961,0.70336 -0.22203,1.39959 -0.3474,2.02644 -0.10146,0.50733 -0.2092,0.96632 -0.31843,1.4185 -0.72268,0.0686 -1.45586,0.13733 -2.20013,0.14474 l 0,-3.41599 c 0.97222,-0.008 1.92892,-0.0912 2.86596,-0.17369 z m -14.76402,1.6501 c 0.92134,0.48163 1.88376,0.87995 2.8949,1.2448 0.99139,1.50782 2.10604,2.78829 3.35809,3.73444 -2.37581,-1.04626 -4.51516,-2.77073 -6.25299,-4.97924 z m 23.30399,0 c -1.73799,2.20903 -3.87681,3.93281 -6.253,4.97924 1.25767,-0.94615 2.39438,-2.22662 3.38704,-3.73444 1.00188,-0.36279 1.95242,-0.76724 2.86596,-1.2448 z m -19.33797,1.62114 c 0.7226,0.22336 1.47174,0.41878 2.22907,0.57899 0.59534,1.16807 1.24923,2.16323 1.96854,2.92384 0.152,0.16074 0.30539,0.29374 0.46318,0.43425 -1.72245,-0.73878 -3.3028,-2.08276 -4.66079,-3.93708 z m 15.37195,0 c -1.35799,1.85432 -2.96729,3.1983 -4.68975,3.93708 0.16336,-0.14456 0.33497,-0.26806 0.49213,-0.43425 0.71995,-0.76128 1.3728,-1.75442 1.96854,-2.92384 0.75734,-0.16021 1.50647,-0.35563 2.22908,-0.57899 z m -12.39019,0.72373 c 0.6657,0.12025 1.33937,0.22042 2.02643,0.28948 0.25771,0.93268 0.53908,1.73847 0.83951,2.37384 0.18926,0.40022 0.39792,0.71431 0.60794,0.98426 -0.6189,-0.24792 -1.23787,-0.68316 -1.82379,-1.30271 -0.58384,-0.61736 -1.13172,-1.40452 -1.65009,-2.34487 z m 9.40843,0 c -0.5104,0.94035 -1.06625,1.72751 -1.6501,2.34487 -0.58706,0.62077 -1.1956,1.05506 -1.82378,1.30271 0.21002,-0.26995 0.38974,-0.58404 0.57898,-0.98426 0.30043,-0.63537 0.61076,-1.44116 0.86847,-2.37384 0.68705,-0.0691 1.36072,-0.16923 2.02643,-0.28948 z m -6.91882,0.34739 c 0.6597,0.0545 1.32197,0.0818 1.99748,0.0868 l 0,3.3002 c -0.11807,-0.002 -0.2298,-0.0257 -0.34738,-0.029 -0.0385,-0.0344 -0.0762,-0.0462 -0.1158,-0.0868 -0.24861,-0.25437 -0.50785,-0.64019 -0.75267,-1.15796 -0.26583,-0.56219 -0.54211,-1.28329 -0.78163,-2.11328 z m 4.40025,0 c 0.01,-7.9e-4 0.0193,7.9e-4 0.029,0 -0.23207,0.82998 -0.48685,1.5511 -0.75267,2.11328 -0.24484,0.51778 -0.53303,0.90359 -0.78162,1.15796 -0.0398,0.0406 -0.0773,0.0525 -0.11581,0.0868 -0.10786,0.003 -0.21016,0.0278 -0.31844,0.029 l 0,-3.30019 c 0.64685,-0.007 1.30728,-0.0354 1.93959,-0.0868 z"
       id="path3955"
       inkscape:connector-curvature="0" />
    <path
       inkscape:connector-curvature="0"
       id="path2989"
       d="m 155.87163,306.49681 c -11.84043,0 -21.45125,9.61082 -21.45125,21.45125 0,11.84043 9.61082,21.4223 21.45125,21.4223 11.84043,0 21.4223,-9.58187 21.4223,-21.4223 0,-11.84043 -9.58187,-21.45125 -21.4223,-21.45125 z m -0.2316,0.92638 0,3.32914 c -0.67551,0.005 -1.33778,0.0325 -1.99748,0.0868 0.24165,-0.84132 0.51301,-1.57416 0.78163,-2.14223 0.24482,-0.51778 0.50406,-0.93255 0.75267,-1.18691 0.0299,-0.0305 0.0577,-0.0316 0.0868,-0.0579 0.1273,-0.004 0.24846,-0.0275 0.37634,-0.0289 z m 0.46319,0 c 0.11807,0.002 0.22981,0.0256 0.34739,0.0289 0.0291,0.0262 0.0571,0.0274 0.0868,0.0579 0.24861,0.25436 0.53678,0.66913 0.78162,1.18691 0.26862,0.56808 0.51852,1.30091 0.75267,2.14223 -0.64173,-0.0528 -1.31179,-0.0806 -1.96853,-0.0868 l 0,-3.32914 z m 0.95532,0.0289 c 0.63988,0.25326 1.25524,0.72881 1.85273,1.36061 0.58385,0.61736 1.1397,1.43346 1.6501,2.37382 -0.66605,-0.11994 -1.33901,-0.22062 -2.02643,-0.28949 -0.25902,-0.94015 -0.56617,-1.76347 -0.86847,-2.40278 -0.20089,-0.42482 -0.38342,-0.76397 -0.60793,-1.04216 z m -2.40277,0.029 c -0.21929,0.27533 -0.44016,0.5972 -0.63689,1.01321 -0.30229,0.63931 -0.5805,1.46263 -0.83951,2.40278 -0.68743,0.0689 -1.36039,0.16955 -2.02643,0.28948 0.51837,-0.94035 1.06625,-1.75646 1.65009,-2.37382 0.59358,-0.62767 1.22528,-1.07746 1.85274,-1.33165 z m -1.8238,0.46317 c -0.15998,0.14211 -0.30914,0.30032 -0.46318,0.46319 -0.72043,0.7618 -1.37249,1.75339 -1.96854,2.92386 -0.747,0.15761 -1.4869,0.33111 -2.20012,0.55003 1.35265,-1.83764 2.91952,-3.20265 4.63184,-3.93708 z m 6.02141,0 c 1.71233,0.73443 3.30814,2.09944 4.6608,3.93708 -0.71323,-0.21892 -1.45312,-0.39242 -2.20013,-0.55003 -0.59643,-1.17174 -1.24751,-2.16144 -1.96854,-2.92386 -0.15898,-0.16811 -0.32681,-0.31722 -0.49213,-0.46319 z m -8.39523,0.57898 c -1.26132,0.94749 -2.39052,2.21302 -3.38703,3.73444 -1.01435,0.36621 -1.97122,0.79016 -2.8949,1.27375 1.74463,-2.22746 3.88901,-3.95711 6.28193,-5.00819 z m 10.798,0 c 2.39349,1.05132 4.53708,2.77996 6.28194,5.00819 -0.91285,-0.47791 -1.86448,-0.88146 -2.86595,-1.2448 -1.00081,-1.53049 -2.14334,-2.81167 -3.41599,-3.76339 z m 2.89491,0.66584 c 4.63755,2.05162 8.35515,5.76084 10.42166,10.39271 -1.35037,-1.95213 -3.14781,-3.67825 -5.29769,-5.06609 -1.40314,-2.16482 -3.14803,-3.97567 -5.12397,-5.32662 z m -16.64571,0.0289 c -1.95513,1.34735 -3.67483,3.15123 -5.06608,5.29769 -2.14178,1.38262 -3.94895,3.09412 -5.29768,5.03713 2.06146,-4.59247 5.76813,-8.27916 10.36376,-10.33482 z m 8.13468,2.34488 0,3.44493 c -0.99126,0.006 -1.94009,0.0607 -2.8949,0.14476 0.10834,-0.7021 0.22202,-1.37064 0.34739,-1.99749 0.10146,-0.50734 0.20628,-0.99528 0.31843,-1.44746 0.74065,-0.0701 1.46582,-0.13877 2.22908,-0.14474 z m 0.46319,0 c 0.74427,0.008 1.47745,0.0763 2.20013,0.14474 0.10923,0.45218 0.21697,0.94012 0.31843,1.44746 0.12537,0.62685 0.23779,1.29539 0.3474,1.99749 -0.93696,-0.0824 -1.89382,-0.13773 -2.86596,-0.14476 l 0,-3.44493 z m -3.1265,0.17369 c -0.10228,0.42391 -0.19599,0.86418 -0.28948,1.33166 -0.1329,0.66449 -0.26307,1.36724 -0.37635,2.11328 -0.99869,0.10053 -1.97698,0.22419 -2.92384,0.40528 0.24788,-0.84197 0.51605,-1.63754 0.81056,-2.37381 0.15411,-0.38528 0.29668,-0.74774 0.46319,-1.10007 0.75131,-0.15531 1.53319,-0.28883 2.31592,-0.37634 z m 5.76086,0 c 0.78777,0.0881 1.56,0.2196 2.31593,0.37634 0.16465,0.35233 0.30907,0.71479 0.46318,1.10007 0.29452,0.73627 0.56269,1.53184 0.81058,2.37381 -0.94687,-0.18109 -1.92517,-0.30475 -2.92386,-0.40528 -0.11465,-0.74604 -0.24344,-1.44879 -0.37634,-2.11328 -0.0935,-0.46748 -0.18721,-0.90775 -0.28949,-1.33166 z m -8.77155,0.52109 c -0.1074,0.2421 -0.21643,0.46869 -0.31845,0.72372 -0.33985,0.84964 -0.6501,1.77064 -0.92637,2.75016 -1.05019,0.22432 -2.07189,0.49357 -3.03965,0.81058 0.46512,-1.17222 1.00046,-2.28501 1.59221,-3.27124 0.056,-0.0932 0.11676,-0.16921 0.17368,-0.26055 0.81695,-0.29125 1.64863,-0.54695 2.51858,-0.75267 z m 11.78226,0 c 0.86153,0.20464 1.70908,0.46408 2.51857,0.75267 0.057,0.0913 0.11776,0.16732 0.17368,0.26055 0.59154,0.98587 1.09825,2.09949 1.56326,3.27124 -0.95984,-0.31336 -1.96998,-0.58829 -3.0107,-0.81058 -0.27837,-0.97952 -0.58652,-1.90052 -0.92638,-2.75016 -0.10201,-0.25503 -0.21105,-0.48162 -0.31843,-0.72372 z m -15.37195,1.15796 c -0.59154,1.05233 -1.10811,2.21397 -1.56325,3.44494 -1.25677,0.4598 -2.43195,0.98795 -3.50284,1.5922 0.48648,-1.17135 1.05815,-2.27581 1.708,-3.30019 1.04205,-0.66306 2.16357,-1.24293 3.35809,-1.73695 z m 19.01952,0.029 c 1.15663,0.48215 2.2292,1.06676 3.24229,1.70798 0.65385,1.02868 1.27701,2.12304 1.7659,3.3002 -1.06367,-0.60018 -2.22672,-1.13445 -3.47389,-1.5922 -0.4475,-1.21928 -0.95045,-2.37172 -1.5343,-3.41598 z m -9.75583,2.25802 0,3.56073 c -1.16272,0.004 -2.27649,0.0387 -3.38704,0.1158 0.10951,-1.22887 0.22321,-2.41456 0.37634,-3.50284 0.98742,-0.0919 1.98106,-0.16775 3.0107,-0.17369 z m 0.46319,0 c 1.01076,0.008 2.01044,0.0834 2.98176,0.17369 0.15551,1.08828 0.2634,2.27397 0.37633,3.50284 -1.09292,-0.0759 -2.21453,-0.11022 -3.35809,-0.1158 l 0,-3.56073 z m -3.90812,0.20264 c -0.15065,1.0881 -0.26935,2.27938 -0.37634,3.50284 -1.17754,0.092 -2.31646,0.23805 -3.416,0.40528 0.203,-1.20361 0.46729,-2.34259 0.75268,-3.41599 0.98163,-0.19977 1.9965,-0.3815 3.03966,-0.49213 z m 7.3241,0 c 1.04222,0.11034 2.05789,0.29311 3.03966,0.49213 0.28534,1.07327 0.52075,2.21254 0.72372,3.41599 -1.08194,-0.16384 -2.2007,-0.31419 -3.35809,-0.40528 -0.11039,-1.22359 -0.2522,-2.41463 -0.40529,-3.50284 z m -18.0642,0.34739 c -0.48934,0.93072 -0.93312,1.90071 -1.3027,2.92386 -1.52031,1.00191 -2.78778,2.14902 -3.73444,3.41598 1.05085,-2.41954 2.7826,-4.58176 5.03714,-6.33984 z m 28.80431,0 c 2.24827,1.75321 3.98535,3.89946 5.03714,6.3109 -0.95228,-1.2694 -2.23517,-2.41355 -3.76339,-3.416 -0.3673,-1.01326 -0.78888,-1.9725 -1.27375,-2.8949 z m -21.74075,0.28949 c -0.27152,1.06437 -0.53198,2.17687 -0.72372,3.35809 -1.17905,0.19618 -2.29614,0.44857 -3.35809,0.72373 0.25363,-1.11656 0.56691,-2.17099 0.92638,-3.18439 0.99893,-0.35166 2.05615,-0.64883 3.15543,-0.89743 z m 14.70612,0 c 1.09509,0.24739 2.13084,0.51931 3.1265,0.86847 0.36284,1.02004 0.67089,2.08858 0.92637,3.21335 -1.06194,-0.27516 -2.17903,-0.52755 -3.35809,-0.72373 -0.19464,-1.17932 -0.4212,-2.29524 -0.69478,-3.35809 z m -18.75898,1.21586 c -0.32401,0.98118 -0.58176,2.00281 -0.81057,3.0686 -0.97112,0.27674 -1.90703,0.56017 -2.75016,0.89742 -0.26736,0.10695 -0.49953,0.23544 -0.75267,0.34739 0.20563,-0.8711 0.46096,-1.70074 0.75267,-2.51857 0.11144,-0.07 0.20423,-0.16306 0.31843,-0.23159 0.98623,-0.59174 2.07009,-1.10098 3.2423,-1.56325 z m 22.7829,0 c 1.17506,0.46227 2.28502,0.97151 3.27125,1.56325 0.10254,0.0615 0.18921,0.13992 0.28949,0.20264 0.29563,0.82577 0.54489,1.66732 0.75267,2.54752 -0.25314,-0.11195 -0.48532,-0.24044 -0.75267,-0.34739 -0.84313,-0.33725 -1.77905,-0.62068 -2.75016,-0.89742 -0.22598,-1.06503 -0.48939,-2.08809 -0.81058,-3.0686 z m -11.60857,2.08434 0,3.67652 c -1.25989,0.003 -2.47817,0.0412 -3.67652,0.0868 0.0524,-1.26898 0.13579,-2.47575 0.23159,-3.64758 1.12367,-0.0794 2.26598,-0.11123 3.44493,-0.11579 z m 0.46319,0 c 1.15972,0.006 2.30993,0.0377 3.41598,0.11579 0.099,1.17191 0.20575,2.37852 0.26055,3.64758 -1.1896,-0.0456 -2.426,-0.0837 -3.67653,-0.0868 l 0,-3.67653 z m -4.45816,0.14474 c 0.047,-0.004 0.0976,0.004 0.14475,0 -0.0932,1.16158 -0.18062,2.36363 -0.23159,3.61863 -1.2575,0.0531 -2.45354,0.13558 -3.61863,0.2316 0.0944,-1.19187 0.20481,-2.33686 0.37633,-3.44495 1.073,-0.16611 2.17729,-0.31134 3.32914,-0.40528 z m 8.30838,0 c 1.18174,0.0936 2.31657,0.23581 3.41599,0.40528 0.17162,1.10844 0.31083,2.25265 0.40529,3.44495 -1.15582,-0.0952 -2.34285,-0.17866 -3.58969,-0.2316 -0.0533,-1.255 -0.13519,-2.45705 -0.23159,-3.61863 z m 11.95596,0.26054 c 1.88471,1.38028 3.23597,2.99238 3.96603,4.74764 -0.15944,-0.18454 -0.30525,-0.37328 -0.49214,-0.55002 -0.75479,-0.71381 -1.73863,-1.35594 -2.89491,-1.93959 -0.16134,-0.7664 -0.35291,-1.52735 -0.57898,-2.25803 z m -32.13344,0.0579 c -0.21883,0.71317 -0.39277,1.45308 -0.55004,2.20013 -1.15628,0.58365 -2.14011,1.22578 -2.8949,1.93959 -0.16288,0.15403 -0.32109,0.30319 -0.46319,0.46318 0.73635,-1.70155 2.08456,-3.25594 3.90813,-4.6029 z m 7.93203,0.17369 c -0.16343,1.09882 -0.28719,2.23952 -0.37633,3.416 -1.22698,0.11039 -2.41222,0.25221 -3.50284,0.40528 0.11224,-1.04965 0.25996,-2.08112 0.46319,-3.0686 1.07254,-0.28613 2.21293,-0.54893 3.41598,-0.75268 z m 16.29832,0 c 1.20306,0.20375 2.34345,0.46655 3.41599,0.75268 0.20322,0.98748 0.35095,2.01895 0.46318,3.0686 -1.08178,-0.15183 -2.25783,-0.29543 -3.47388,-0.40528 -0.0913,-1.17704 -0.23882,-2.31671 -0.40529,-3.416 z m -20.49593,0.98427 c -0.18353,0.9516 -0.33278,1.94905 -0.43423,2.9528 -0.73707,0.11346 -1.45715,0.21617 -2.11328,0.3474 -0.45795,0.0916 -0.88897,0.22083 -1.30271,0.31843 0.0866,-0.7874 0.19192,-1.56038 0.34738,-2.31592 0.36441,-0.1722 0.73144,-0.3331 1.12902,-0.49213 0.73291,-0.29317 1.53616,-0.5636 2.37382,-0.81058 z m 24.69355,0 c 0.83766,0.24698 1.6409,0.51741 2.37381,0.81058 0.39758,0.15903 0.76461,0.31993 1.12902,0.49213 0.15547,0.75554 0.26076,1.52852 0.34739,2.31592 -0.41374,-0.0976 -0.84476,-0.22685 -1.30271,-0.31843 -0.65614,-0.13123 -1.37621,-0.23394 -2.11329,-0.3474 -0.0999,-1.00393 -0.25299,-2.00104 -0.43422,-2.9528 z m -29.12275,1.7659 c -0.12193,0.67461 -0.2202,1.35868 -0.28949,2.05538 -0.92484,0.24986 -1.70951,0.51013 -2.34488,0.81057 -0.42483,0.20088 -0.76398,0.41237 -1.04217,0.63688 0.24598,-0.62833 0.67422,-1.25837 1.30271,-1.85274 0.61539,-0.58198 1.42947,-1.1331 2.37383,-1.65009 z m 33.55195,0 c 0.93856,0.51497 1.76131,1.07083 2.37382,1.65009 0.62849,0.59437 1.05674,1.22441 1.30271,1.85274 -0.28295,-0.21929 -0.62616,-0.44016 -1.04216,-0.63688 -0.63538,-0.30044 -1.42004,-0.56071 -2.34488,-0.81057 -0.0693,-0.6967 -0.16757,-1.38077 -0.28949,-2.05538 z m -16.9931,0.72372 0,3.76338 -3.76337,0 c 0.003,-1.25489 0.0427,-2.48524 0.0868,-3.67653 1.20111,-0.0446 2.41286,-0.0845 3.67653,-0.0868 z m 0.46319,0 c 1.2542,0.003 2.48424,0.0422 3.67653,0.0868 0.0462,1.19129 0.0844,2.42164 0.0868,3.67653 l -3.76338,0 0,-3.76338 z m -4.545,0.0868 c -0.0435,1.19623 -0.0845,2.41677 -0.0868,3.67653 l -3.70548,0 c 0.004,-1.17746 0.0657,-2.32258 0.14474,-3.44494 1.16725,-0.0947 2.38547,-0.17963 3.64759,-0.23159 z m 8.62681,0 c 1.25149,0.0519 2.46062,0.13756 3.61864,0.23159 0.0791,1.12236 0.14025,2.26748 0.14474,3.44494 l -3.67652,0 c -0.003,-1.25976 -0.0412,-2.4803 -0.0868,-3.67653 z m -12.88232,0.26054 c -0.0756,1.11288 -0.11144,2.25068 -0.1158,3.41599 l -3.56073,0 c 0.006,-1.03001 0.0802,-2.02294 0.17369,-3.0107 1.09004,-0.15295 2.27142,-0.29592 3.50284,-0.40529 z m 17.13783,0.0289 c 1.21928,0.10881 2.3936,0.22476 3.47389,0.37633 0.0935,0.98777 0.16764,1.9807 0.1737,3.01071 l -3.53179,0 c -0.004,-1.1554 -0.0396,-2.28312 -0.1158,-3.38704 z m -21.39334,0.46318 c -0.0863,0.95953 -0.13905,1.9275 -0.14475,2.92386 l -3.41598,0 c 0.006,-0.75333 0.0472,-1.49799 0.11579,-2.22909 0.45217,-0.11214 0.94011,-0.21696 1.44745,-0.31842 0.62452,-0.12492 1.29699,-0.26835 1.99749,-0.37635 z m 25.6199,0 c 0.7005,0.108 1.37297,0.25143 1.9975,0.37635 0.51707,0.1034 0.98772,0.20394 1.44745,0.31842 0.0686,0.7311 0.10995,1.47576 0.11579,2.22909 l -3.41598,0 c -0.006,-0.99636 -0.06,-1.96433 -0.14476,-2.92386 z m -29.93332,0.92638 c -0.0545,0.65951 -0.0818,1.32198 -0.0868,1.99748 l -3.30019,0 c 0.002,-0.13767 0.0247,-0.26828 0.0289,-0.40529 0.0252,-0.0278 0.0289,-0.0585 0.0579,-0.0868 0.25436,-0.24861 0.64018,-0.47889 1.15797,-0.72372 0.56807,-0.26862 1.30091,-0.53997 2.14222,-0.78162 z m 34.24674,0 c 0.83917,0.24125 1.57528,0.51353 2.14223,0.78162 0.51779,0.24483 0.9036,0.47511 1.15796,0.72372 0.0289,0.0283 0.0327,0.0592 0.0579,0.0868 0.004,0.13702 0.0274,0.26762 0.0289,0.40529 l -3.30019,0 c -0.005,-0.6755 -0.0324,-1.33797 -0.0868,-1.99748 z m -37.63377,2.46066 3.30019,0 c 0.007,0.66521 0.0325,1.31875 0.0868,1.96854 -0.84189,-0.23426 -1.57385,-0.48392 -2.14223,-0.75268 -0.51778,-0.24483 -0.9036,-0.50406 -1.15796,-0.75267 -0.0356,-0.0347 -0.0281,-0.081 -0.0579,-0.1158 -0.003,-0.11758 -0.0277,-0.22931 -0.0289,-0.34739 z m 4.13972,0 3.41598,0 c 0.008,0.97175 0.061,1.92936 0.14475,2.86596 -0.7005,-0.10927 -1.37297,-0.22248 -1.99749,-0.3474 -0.50749,-0.10148 -0.99516,-0.23812 -1.44745,-0.34737 -0.0668,-0.71244 -0.10849,-1.43781 -0.11579,-2.17119 z m 4.13971,0 3.56073,0 c 0.006,1.14396 0.0706,2.26314 0.14475,3.3581 -1.24133,-0.1133 -2.4338,-0.24883 -3.53179,-0.40529 -0.0902,-0.96249 -0.16622,-1.95168 -0.17369,-2.95281 z m 4.13971,0 3.70548,0 c 0.003,1.24069 0.0439,2.46679 0.0868,3.64758 -1.26212,-0.0544 -2.48034,-0.13361 -3.64758,-0.23159 -0.0781,-1.10811 -0.13905,-2.25591 -0.14475,-3.41599 z m 4.11077,0 3.76337,0 0,3.76338 c -1.26372,-0.003 -2.47535,-0.0691 -3.67652,-0.1158 -0.044,-1.18346 -0.0838,-2.40323 -0.0868,-3.64758 z m 4.22656,0 3.76338,0 c -0.003,1.24435 -0.0408,2.46412 -0.0868,3.64758 -1.19235,0.0468 -2.42226,0.11255 -3.67653,0.1158 l 0,-3.76338 z m 4.16867,0 3.67652,0 c -0.006,1.16008 -0.0666,2.30788 -0.14474,3.41599 -1.15802,0.0972 -2.36715,0.17727 -3.61864,0.23159 0.045,-1.18079 0.0837,-2.40689 0.0868,-3.64758 z m 4.28445,0 3.53179,0 c -0.008,1.00113 -0.0836,1.99032 -0.1737,2.95281 -1.08038,0.15394 -2.25449,0.29308 -3.47389,0.40529 0.0759,-1.09433 0.11022,-2.21483 0.1158,-3.3581 z m 4.25552,0 3.41598,0 c -0.008,0.73338 -0.049,1.45875 -0.11579,2.17119 -0.45993,0.11153 -0.93014,0.24392 -1.44745,0.34737 -0.62453,0.12492 -1.297,0.23813 -1.9975,0.3474 0.0824,-0.9366 0.13774,-1.89421 0.14476,-2.86596 z m 4.2555,0 3.30019,0 c -0.002,0.11808 -0.0257,0.22981 -0.0289,0.34739 -0.0299,0.0347 -0.0222,0.081 -0.0579,0.1158 -0.25436,0.24861 -0.64017,0.50784 -1.15797,0.75267 -0.56722,0.26822 -1.30252,0.51882 -2.14222,0.75268 0.0543,-0.64979 0.0803,-1.30333 0.0868,-1.96854 z m -37.69166,0.92637 c 0.28225,0.23245 0.63295,0.42969 1.07111,0.63688 0.63485,0.30019 1.42104,0.58199 2.34488,0.83953 0.0693,0.69123 0.16838,1.38573 0.28949,2.05537 -0.94436,-0.50903 -1.75844,-1.06811 -2.37383,-1.65009 -0.63951,-0.60479 -1.08831,-1.2336 -1.33165,-1.88169 z m 40.9629,0 c -5.1e-4,0.01 5.5e-4,0.0196 0,0.029 -0.24528,0.63946 -0.70025,1.25562 -1.33165,1.85274 -0.61251,0.57926 -1.43526,1.14306 -2.37382,1.65009 0.1211,-0.66965 0.22018,-1.36414 0.28949,-2.05538 0.92384,-0.25754 1.71003,-0.53934 2.34488,-0.83952 0.42887,-0.2028 0.78439,-0.40997 1.0711,-0.63688 z m -36.67844,1.708 c 0.41361,0.1 0.84494,0.19793 1.30271,0.28948 0.66394,0.1328 1.39548,0.23282 2.14222,0.3474 0.1024,1.00915 0.21995,1.99647 0.40529,2.95279 -0.839,-0.24896 -1.63987,-0.51698 -2.37382,-0.81056 -0.39758,-0.15904 -0.76461,-0.32189 -1.12902,-0.49214 -0.15442,-0.74661 -0.2601,-1.50937 -0.34738,-2.28697 z m 32.39399,0 c -0.0873,0.7776 -0.19296,1.54036 -0.34739,2.28697 -0.36441,0.17025 -0.73144,0.3331 -1.12902,0.49214 -0.73395,0.29358 -1.53481,0.5616 -2.37381,0.81056 0.18303,-0.95653 0.30449,-1.94342 0.40528,-2.95279 0.74675,-0.11458 1.47829,-0.2146 2.14223,-0.3474 0.45776,-0.0915 0.88911,-0.18949 1.30271,-0.28948 z m -36.18632,0.1158 c 0.14448,0.16324 0.29711,0.30611 0.46319,0.46317 0.75479,0.71381 1.73862,1.37673 2.8949,1.96854 0.16306,0.7727 0.35022,1.52149 0.57898,2.25803 -1.84118,-1.3562 -3.19607,-2.97084 -3.93707,-4.68974 z m 39.97865,0 c -0.74131,1.735 -2.10195,3.35415 -3.96603,4.71869 0.23257,-0.7456 0.44275,-1.50424 0.60793,-2.28698 1.15628,-0.59181 2.14012,-1.25473 2.89491,-1.96854 0.16913,-0.15993 0.31648,-0.29682 0.46319,-0.46317 z m -32.01766,0.66582 c 1.09025,0.153 2.27634,0.26599 3.50284,0.37634 0.0898,1.17975 0.21205,2.31348 0.37633,3.416 -1.20304,-0.20708 -2.34345,-0.46402 -3.41598,-0.75269 -0.20138,-0.98108 -0.35112,-1.9982 -0.46319,-3.03965 z m 24.05666,0 c -0.11207,1.04145 -0.2618,2.05857 -0.46318,3.03965 -1.07253,0.28867 -2.21294,0.54561 -3.41599,0.75269 0.1673,-1.10296 0.31329,-2.23574 0.40529,-3.416 1.21556,-0.10983 2.39248,-0.22458 3.47388,-0.37634 z m -19.94589,0.43423 c 1.16509,0.096 2.36113,0.1786 3.61863,0.2316 0.051,1.25741 0.13836,2.45388 0.23159,3.61863 -1.20138,-0.0967 -2.35748,-0.22944 -3.47389,-0.40528 -0.17144,-1.1106 -0.28193,-2.25141 -0.37633,-3.44495 z m 15.83513,0 c -0.0945,1.19396 -0.23376,2.33398 -0.40529,3.44495 -1.09902,0.17235 -2.23472,0.30946 -3.41599,0.40528 0.0964,-1.16475 0.17821,-2.36122 0.23159,-3.61863 1.24684,-0.053 2.43387,-0.13634 3.58969,-0.2316 z m -11.81121,0.2316 c 1.19835,0.0456 2.41663,0.0844 3.67652,0.0868 l 0,3.70548 c -1.17898,-0.005 -2.32122,-0.0635 -3.44493,-0.14476 -0.0951,-1.1664 -0.17927,-2.3861 -0.23159,-3.64757 z m 7.81624,0 c -0.0548,1.26156 -0.16223,2.48109 -0.26055,3.64757 -1.10609,0.0801 -2.25621,0.1389 -3.41598,0.14476 l 0,-3.70548 c 1.25053,-0.003 2.48693,-0.0411 3.67653,-0.0868 z m -23.36189,1.04216 c 0.9481,1.26948 2.21513,2.41534 3.73444,3.41599 0.36598,1.00809 0.8205,1.9765 1.3027,2.8949 -2.2423,-1.75265 -3.9845,-3.90448 -5.03714,-6.31089 z m 38.84964,0.029 c -1.05405,2.39348 -2.77586,4.53707 -5.00819,6.28194 0.47622,-0.90721 0.8819,-1.87117 1.24481,-2.86595 1.53031,-1.00035 2.80661,-2.14419 3.76338,-3.41599 z m -35.1152,0.46318 c 0.25314,0.11286 0.48531,0.24045 0.75267,0.34739 0.84368,0.33748 1.77833,0.6495 2.75016,0.92637 0.22659,1.04624 0.49207,2.0753 0.81057,3.03965 -1.17221,-0.46227 -2.25607,-0.9715 -3.2423,-1.56324 -0.11064,-0.0663 -0.21039,-0.13482 -0.31843,-0.20264 -0.29255,-0.81808 -0.54612,-1.67632 -0.75267,-2.54753 z m 31.40971,0 c -0.20872,0.88031 -0.45618,1.75045 -0.75267,2.57647 -0.0968,0.0605 -0.19058,0.11435 -0.28949,0.1737 -0.98623,0.59174 -2.09619,1.10097 -3.27125,1.56324 0.31568,-0.96358 0.58679,-1.99429 0.81058,-3.03965 0.97183,-0.27687 1.90647,-0.58889 2.75016,-0.92637 0.26735,-0.10694 0.49953,-0.23453 0.75267,-0.34739 z m -27.12526,1.4764 c 1.06152,0.27499 2.17958,0.52764 3.35809,0.72373 0.19163,1.17403 0.45357,2.3001 0.72372,3.35809 -1.10064,-0.24877 -2.15536,-0.57431 -3.15543,-0.92637 -0.35653,-1.00783 -0.67392,-2.04574 -0.92638,-3.15545 z m 22.8408,0 c -0.25434,1.11793 -0.56647,2.16993 -0.92637,3.1844 -1.00509,0.35247 -2.04914,0.64871 -3.15544,0.89742 0.27287,-1.0584 0.52883,-2.18355 0.72372,-3.35809 1.17851,-0.19609 2.29658,-0.44874 3.35809,-0.72373 z m -18.87479,0.81057 c 1.09954,0.16724 2.23846,0.28435 3.416,0.37635 0.10699,1.22683 0.22569,2.41233 0.37634,3.50283 -1.04236,-0.11056 -2.05874,-0.2636 -3.03966,-0.46318 -0.28612,-1.0751 -0.54893,-2.20959 -0.75268,-3.416 z m 14.87982,0 c -0.20373,1.20632 -0.43762,2.34097 -0.72372,3.416 -0.98109,0.19883 -1.99821,0.35291 -3.03966,0.46318 0.15309,-1.09062 0.2949,-2.27586 0.40529,-3.50283 1.15739,-0.0911 2.27615,-0.2125 3.35809,-0.37635 z m -26.22783,0.0868 c 1.35021,1.98549 3.18473,3.71328 5.35556,5.12398 1.39735,2.17352 3.1236,3.99395 5.09504,5.35558 -4.65549,-2.07705 -8.40567,-5.80907 -10.4506,-10.47956 z m 37.60481,0 c -2.05194,4.69867 -5.81917,8.43934 -10.5085,10.50851 1.99229,-1.36518 3.74374,-3.19256 5.15293,-5.38453 2.1711,-1.41087 4.00531,-3.13818 5.35557,-5.12398 z m -22.40657,0.31843 c 1.11058,0.0772 2.22428,0.14029 3.38704,0.14475 l 0,3.53179 c -1.03,-0.006 -2.02293,-0.0818 -3.0107,-0.1737 -0.15313,-1.09065 -0.26683,-2.27054 -0.37634,-3.50284 z m 7.20832,0 c -0.11293,1.2323 -0.22082,2.41219 -0.37633,3.50284 -0.97164,0.0904 -1.97066,0.16629 -2.98176,0.1737 l 0,-3.53179 c 1.1436,-0.006 2.26513,-0.0689 3.35809,-0.14475 z m -18.15106,0.92638 c 1.07089,0.60424 2.24607,1.13239 3.50284,1.59219 0.45714,1.23427 0.96895,2.39062 1.56325,3.44494 -1.19452,-0.49549 -2.31604,-1.07218 -3.35809,-1.73694 -0.65101,-1.02732 -1.22081,-2.12571 -1.708,-3.30019 z m 29.0938,0 c -0.49278,1.188 -1.10561,2.29186 -1.7659,3.32914 -1.01672,0.64415 -2.11026,1.19524 -3.27124,1.67904 0.58941,-1.04961 1.112,-2.18862 1.56325,-3.41599 1.24717,-0.45774 2.41022,-0.99202 3.47389,-1.59219 z m -24.72249,1.91063 c 0.96776,0.31701 1.98946,0.58625 3.03965,0.81058 0.27627,0.98162 0.58652,1.90052 0.92637,2.75015 0.10023,0.25058 0.21301,0.48563 0.31845,0.72373 -0.86995,-0.20639 -1.70163,-0.46052 -2.51858,-0.75267 -0.056,-0.09 -0.11862,-0.16875 -0.17368,-0.26054 -0.59175,-0.98624 -1.12709,-2.09619 -1.59221,-3.27125 z m 20.32224,0 c -0.46501,1.17458 -0.97172,2.28537 -1.56326,3.27125 -0.0551,0.0918 -0.11764,0.17056 -0.17368,0.26054 -0.80949,0.28948 -1.65704,0.54736 -2.51857,0.75267 0.10543,-0.2381 0.2182,-0.47315 0.31843,-0.72373 0.33986,-0.84963 0.64801,-1.76853 0.92638,-2.75015 1.04072,-0.2223 2.05086,-0.49723 3.0107,-0.81058 z m -16.61675,0.95532 c 0.94686,0.1811 1.92515,0.30476 2.92384,0.40529 0.11328,0.74742 0.24345,1.44879 0.37635,2.11328 0.0912,0.45615 0.16093,0.91695 0.26053,1.33166 -0.77288,-0.0876 -1.54479,-0.22241 -2.28697,-0.37634 -0.16255,-0.34522 -0.3125,-0.69441 -0.46319,-1.07112 -0.29451,-0.73628 -0.56268,-1.55908 -0.81056,-2.40277 z m 12.94022,0 c -0.24789,0.84369 -0.51606,1.66649 -0.81058,2.40277 -0.15068,0.37671 -0.30241,0.7259 -0.46318,1.07112 -0.74681,0.15536 -1.50908,0.28818 -2.28698,0.37634 0.0996,-0.41471 0.16932,-0.87551 0.26054,-1.33166 0.1329,-0.66449 0.26169,-1.36586 0.37634,-2.11328 0.99869,-0.10053 1.97699,-0.22419 2.92386,-0.40529 z m -9.58214,0.43424 c 0.95488,0.0841 1.90358,0.16806 2.8949,0.17369 l 0,3.41599 c -0.76326,-0.006 -1.48843,-0.0743 -2.22908,-0.14474 -0.11215,-0.45218 -0.21697,-0.91117 -0.31843,-1.4185 -0.12537,-0.62685 -0.23905,-1.32308 -0.34739,-2.02644 z m 6.22405,0 c -0.10961,0.70336 -0.22203,1.39959 -0.3474,2.02644 -0.10146,0.50733 -0.2092,0.96632 -0.31843,1.4185 -0.72268,0.0686 -1.45586,0.13733 -2.20013,0.14474 l 0,-3.41599 c 0.97222,-0.008 1.92892,-0.0912 2.86596,-0.17369 z m -14.76402,1.6501 c 0.92134,0.48163 1.88376,0.87995 2.8949,1.2448 0.99139,1.50782 2.10604,2.78829 3.35809,3.73444 -2.37581,-1.04626 -4.51516,-2.77073 -6.25299,-4.97924 z m 23.30399,0 c -1.73799,2.20903 -3.87681,3.93281 -6.253,4.97924 1.25767,-0.94615 2.39438,-2.22662 3.38704,-3.73444 1.00188,-0.36279 1.95242,-0.76724 2.86596,-1.2448 z m -19.33797,1.62114 c 0.7226,0.22336 1.47174,0.41878 2.22907,0.57899 0.59534,1.16807 1.24923,2.16323 1.96854,2.92384 0.152,0.16074 0.30539,0.29374 0.46318,0.43425 -1.72245,-0.73878 -3.3028,-2.08276 -4.66079,-3.93708 z m 15.37195,0 c -1.35799,1.85432 -2.96729,3.1983 -4.68975,3.93708 0.16336,-0.14456 0.33497,-0.26806 0.49213,-0.43425 0.71995,-0.76128 1.3728,-1.75442 1.96854,-2.92384 0.75734,-0.16021 1.50647,-0.35563 2.22908,-0.57899 z m -12.39019,0.72373 c 0.6657,0.12025 1.33937,0.22042 2.02643,0.28948 0.25771,0.93268 0.53908,1.73847 0.83951,2.37384 0.18926,0.40022 0.39792,0.71431 0.60794,0.98426 -0.6189,-0.24792 -1.23787,-0.68316 -1.82379,-1.30271 -0.58384,-0.61736 -1.13172,-1.40452 -1.65009,-2.34487 z m 9.40843,0 c -0.5104,0.94035 -1.06625,1.72751 -1.6501,2.34487 -0.58706,0.62077 -1.1956,1.05506 -1.82378,1.30271 0.21002,-0.26995 0.38974,-0.58404 0.57898,-0.98426 0.30043,-0.63537 0.61076,-1.44116 0.86847,-2.37384 0.68705,-0.0691 1.36072,-0.16923 2.02643,-0.28948 z m -6.91882,0.34739 c 0.6597,0.0545 1.32197,0.0818 1.99748,0.0868 l 0,3.3002 c -0.11807,-0.002 -0.2298,-0.0257 -0.34738,-0.029 -0.0385,-0.0344 -0.0762,-0.0462 -0.1158,-0.0868 -0.24861,-0.25437 -0.50785,-0.64019 -0.75267,-1.15796 -0.26583,-0.56219 -0.54211,-1.28329 -0.78163,-2.11328 z m 4.40025,0 c 0.01,-7.9e-4 0.0193,7.9e-4 0.029,0 -0.23207,0.82998 -0.48685,1.5511 -0.75267,2.11328 -0.24484,0.51778 -0.53303,0.90359 -0.78162,1.15796 -0.0398,0.0406 -0.0773,0.0525 -0.11581,0.0868 -0.10786,0.003 -0.21016,0.0278 -0.31844,0.029 l 0,-3.30019 c 0.64685,-0.007 1.30728,-0.0354 1.93959,-0.0868 z"
       style="font-size:medium;font-style:normal;font-variant:normal;font-weight:normal;font-stretch:normal;text-indent:0;text-align:start;text-decoration:none;line-height:normal;letter-spacing:normal;word-spacing:normal;text-transform:none;direction:ltr;block-progression:tb;writing-mode:lr-tb;text-anchor:start;baseline-shift:baseline;opacity:1;color:#000000;fill:#9b9b9b;fill-opacity:1;stroke:none;stroke-width:1;marker:none;visibility:visible;display:inline;overflow:visible;enable-background:accumulate;font-family:Sans;-inkscape-font-specification:Sans" />
    <text
       xml:space="preserve"
       style="font-size:40px;font-style:normal;font-weight:normal;text-align:center;line-height:125%;letter-spacing:0px;word-spacing:0px;text-anchor:middle;fill:#ffffff;fill-opacity:1;stroke:none;font-family:Sans;filter:url(#filter3951)"
       x="155.98289"
       y="330.40891"
       id="text3901"
       sodipodi:linespacing="125%"><tspan
         sodipodi:role="line"
         id="tspan3903"
         x="155.98289"
         y="330.40891"
         style="font-size:10px;fill:#ffffff;font-family:Museo 700;-inkscape-font-specification:Museo 700"><tspan
           style="fill:#ffffff"
           id="tspan3905">T</tspan><tspan
           style="fill:#ffffff"
           id="tspan3907">r</tspan><tspan
           style="fill:#ffffff"
           id="tspan3909">a</tspan><tspan
           style="fill:#ffffff"
           id="tspan3911">n</tspan><tspan
           style="fill:#ffffff"
           id="tspan3913">s</tspan><tspan
           style="fill:#ffffff"
           id="tspan3915">l</tspan><tspan
           style="fill:#ffffff"
           id="tspan3917">a</tspan><tspan
           style="fill:#ffffff"
           id="tspan3919">t</tspan><tspan
           style="fill:#ffffff"
           id="tspan3921">e</tspan></tspan></text>
    <text
       sodipodi:linespacing="125%"
       id="text3074"
       y="330.40891"
       x="155.98289"
       style="font-size:40px;font-style:normal;font-weight:normal;text-align:center;line-height:125%;letter-spacing:0px;word-spacing:0px;text-anchor:middle;fill:#000000;fill-opacity:1;stroke:none;font-family:Sans"
       xml:space="preserve"><tspan
         style="font-size:10px;fill:#ff00ff;font-family:Museo 700;-inkscape-font-specification:Museo 700"
         y="330.40891"
         x="155.98289"
         id="tspan3076"
         sodipodi:role="line"><tspan
           id="tspan3084"
           style="fill:#000000">T</tspan><tspan
           id="tspan3082"
           style="fill:#808000">r</tspan><tspan
           id="tspan3088"
           style="fill:#008000">a</tspan><tspan
           id="tspan3090"
           style="fill:#008080">n</tspan><tspan
           id="tspan3092"
           style="fill:#000080">s</tspan><tspan
           id="tspan3094"
           style="fill:#800080">l</tspan><tspan
           id="tspan3096"
           style="fill:#550000">a</tspan><tspan
           id="tspan3098"
           style="fill:#803300">t</tspan><tspan
           id="tspan3100"
           style="fill:#88aa00">e</tspan></tspan></text>
    <text
       xml:space="preserve"
       style="font-size:40px;font-style:normal;font-weight:normal;text-align:center;line-height:125%;letter-spacing:0px;word-spacing:0px;text-anchor:middle;fill:#000000;fill-opacity:1;stroke:none;font-family:Sans"
       x="155.98289"
       y="347.58875"
       id="text3078"
       sodipodi:linespacing="125%"><tspan
         sodipodi:role="line"
         id="tspan3080"
         x="155.98289"
         y="347.58875"
         style="font-size:10px;fill:#808080;stroke:#000000;stroke-width:1;font-family:Museo 700;-inkscape-font-specification:Museo 700">.this</tspan></text>
    <text
       sodipodi:linespacing="125%"
       id="text3102"
       y="347.58875"
       x="155.98289"
       style="font-size:40px;font-style:normal;font-weight:normal;text-align:center;line-height:125%;letter-spacing:0px;word-spacing:0px;text-anchor:middle;fill:#999999;fill-opacity:1;stroke:none;font-family:Sans"
       xml:space="preserve"><tspan
         style="font-size:10px;fill:#999999;stroke:none;font-family:Museo 700;-inkscape-font-specification:Museo 700"
         y="347.58875"
         x="155.98289"
         id="tspan3104"
         sodipodi:role="line">.this</tspan></text>
  </g>
</svg>
